<svg width="500" height="500" viewBox="0 0 500 500" fill="none" xmlns="http://www.w3.org/2000/svg">
<g clip-path="url(#clip0)">
<path opacity="0.6" d="M341 344.7C296 318.7 223.1 318.7 178.2 344.7C141.7 365.8 134.8 397.4 157.6 422.5C156.4 421.7 155.1 420.9 153.8 420.1C138.8 411.4 119.3 406.9 99.6 406.5C74.2 400.1 43.6 402.9 22.8 414.9C-4.09998 430.4 -4.29998 455.6 22.3 471.2C26.2 476.6 32 481.7 39.6 486.1C71.2 504.3 122.3 504.3 153.9 486.1C178.7 471.8 184 450.5 169.8 433.2C172.4 435.1 175.3 436.9 178.3 438.7C223.3 464.7 296.2 464.7 341.1 438.7C386 412.7 386 370.6 341 344.7Z" fill="#D6D8E5"/>
<path d="M379.4 126.3L373.2 215.7L363.9 350.1L363.7 353.3L361.2 388.8C360.1 404.1 349.6 419 329.9 430.3C328.5 431.1 327.1 431.8 325.7 432.6C325.2 432.8 324.8 433.1 324.3 433.3C323.3 433.8 322.3 434.3 321.3 434.7C320.8 434.9 320.2 435.2 319.7 435.4C318.7 435.8 317.7 436.3 316.7 436.7C316.2 436.9 315.6 437.1 315.1 437.4C314 437.8 312.8 438.2 311.7 438.7C311.3 438.8 310.9 439 310.5 439.2C308.9 439.7 307.4 440.2 305.8 440.7C305.5 440.8 305.1 440.9 304.8 441C303.5 441.4 302.2 441.7 301 442.1C300.4 442.2 299.9 442.4 299.3 442.5C298.2 442.8 297.1 443 296 443.3C295.4 443.4 294.8 443.6 294.2 443.7C293.1 443.9 292 444.2 290.8 444.4C290.4 444.5 290 444.6 289.6 444.6C289.4 444.6 289.2 444.7 289.1 444.7C287.8 444.9 286.4 445.1 285.1 445.3C284.9 445.3 284.6 445.4 284.4 445.4C284.3 445.4 284.2 445.4 284.1 445.5C283.3 445.6 282.4 445.7 281.6 445.8C280.8 445.9 279.9 446 279.1 446.1C278.9 446.1 278.6 446.2 278.4 446.2C278.2 446.2 278 446.2 277.8 446.3C277.5 446.3 277.1 446.4 276.8 446.4C276.2 446.5 275.5 446.5 274.9 446.6C274.6 446.6 274.3 446.7 274.1 446.7C273.9 446.7 273.8 446.7 273.6 446.7C273.1 446.7 272.7 446.8 272.2 446.8C271.9 446.8 271.7 446.8 271.4 446.8C270.6 446.9 269.7 446.9 268.9 446.9C268.3 446.9 267.6 447 267 447H266.8C266.6 447 266.3 447 266.1 447C265.4 447 264.8 447 264.1 447.1C263.9 447.1 263.6 447.1 263.4 447.1C263 447.1 262.7 447.1 262.3 447.1C262.1 447.1 261.9 447.1 261.8 447.1C260.9 447.1 260 447.1 259.1 447.1C258.6 447.1 258.1 447.1 257.6 447.1C257.3 447.1 256.9 447.1 256.6 447.1C254.9 447.1 253.2 447 251.5 446.9C251.1 446.9 250.6 446.8 250.2 446.8C248.9 446.7 247.6 446.6 246.3 446.5C245.7 446.4 245.1 446.4 244.5 446.3C243.4 446.2 242.3 446.1 241.2 445.9C240.6 445.8 239.9 445.7 239.3 445.7C238.2 445.6 237.1 445.4 236 445.2C235.4 445.1 234.8 445 234.2 444.9C233 444.7 231.7 444.5 230.5 444.2C230.1 444.1 229.6 444 229.2 444C227.5 443.7 225.9 443.3 224.3 442.9C223.9 442.8 223.6 442.7 223.2 442.6C221.9 442.3 220.7 442 219.4 441.6C218.8 441.4 218.3 441.3 217.7 441.1C216.6 440.8 215.6 440.5 214.6 440.2C214 440 213.4 439.8 212.8 439.6C211.8 439.3 210.8 438.9 209.8 438.6C209.2 438.4 208.7 438.2 208.1 438C207 437.6 205.9 437.2 204.8 436.7C204.5 436.6 204.1 436.4 203.8 436.3C203.7 436.3 203.7 436.2 203.6 436.2C201.8 435.4 200 434.6 198.2 433.8C197.8 433.6 197.4 433.4 197 433.2C195.2 432.3 193.4 431.4 191.7 430.4C171.7 419 160.9 403.8 159.9 388.3L157.6 352.8L157 349L148.4 215.4L142.6 125.6C144 146.8 377.9 147.4 379.4 126.3Z" fill="#F9F9F9"/>
<path d="M344.5 77.3C390.9 104.1 391.1 147.5 345 174.3C298.9 201.1 223.9 201.1 177.6 174.3C131.2 147.5 131 104.1 177 77.3C223.1 50.6 298.1 50.6 344.5 77.3Z" fill="#A75829"/>
<path d="M394.701 144.5C395.201 143.7 395.701 142.9 396.201 142.1C396.501 141.5 396.801 141 397.101 140.4C397.501 139.6 397.901 138.8 398.301 138C398.601 137.4 398.901 136.8 399.101 136.3C399.501 135.5 399.801 134.7 400.101 133.9C400.301 133.3 400.601 132.7 400.801 132.2C401.101 131.4 401.301 130.6 401.601 129.8C401.801 129.2 402.001 128.7 402.101 128.1C402.301 127.3 402.501 126.4 402.701 125.6C402.801 125.1 402.901 124.5 403.001 124C403.201 123.1 403.301 122.1 403.401 121.2C403.501 120.7 403.501 120.3 403.601 119.8C403.701 118.4 403.801 117 403.801 115.6L403.901 93.5C403.901 94.9 403.801 96.3 403.701 97.7C403.701 98.2 403.601 98.6 403.501 99.1C403.401 100 403.301 101 403.101 101.9C403.001 102.4 402.901 103 402.801 103.5C402.601 104.3 402.401 105.2 402.201 106C402.001 106.6 401.901 107.1 401.701 107.7C401.501 108.5 401.201 109.3 400.901 110.1C400.701 110.7 400.501 111.3 400.201 111.8C399.901 112.6 399.601 113.4 399.201 114.2C398.901 114.8 398.701 115.4 398.401 115.9C398.001 116.7 397.601 117.5 397.201 118.3C396.901 118.9 396.601 119.4 396.301 120C395.801 120.8 395.301 121.6 394.801 122.4C394.501 122.9 394.101 123.5 393.801 124C393.201 124.8 392.601 125.7 392.001 126.5C391.601 127 391.301 127.5 390.901 127.9C390.601 128.3 390.301 128.6 390.001 129C389.401 129.8 388.701 130.5 388.001 131.3C387.601 131.7 387.201 132.1 386.801 132.6C386.101 133.3 385.501 134 384.801 134.7C384.401 135.1 383.901 135.6 383.501 136C382.801 136.7 382.001 137.4 381.301 138.1C380.901 138.5 380.401 138.9 380.001 139.3C379.101 140.1 378.201 140.8 377.301 141.5C376.901 141.8 376.601 142.1 376.201 142.4C374.901 143.4 373.501 144.5 372.101 145.5C371.901 145.7 371.601 145.8 371.401 146C370.201 146.8 369.001 147.7 367.701 148.5C367.201 148.8 366.601 149.2 366.101 149.5C364.801 150.3 363.601 151.1 362.301 151.9C360.201 153.1 358.001 154.3 355.801 155.4C355.201 155.7 354.501 156.1 353.801 156.4C352.101 157.2 350.401 158.1 348.601 158.8C348.001 159.1 347.301 159.4 346.701 159.7C344.401 160.7 342.001 161.7 339.601 162.6C339.301 162.7 338.901 162.8 338.601 163C336.501 163.8 334.301 164.5 332.201 165.3C331.501 165.5 330.701 165.8 330.001 166C328.101 166.6 326.101 167.2 324.101 167.8C323.501 168 322.801 168.2 322.201 168.3C319.601 169 317.101 169.7 314.401 170.3C313.901 170.4 313.301 170.5 312.701 170.7C310.601 171.2 308.401 171.6 306.301 172C305.501 172.2 304.701 172.3 303.901 172.5C301.701 172.9 299.501 173.3 297.301 173.6C296.701 173.7 296.201 173.8 295.601 173.9C293.001 174.3 290.401 174.6 287.801 174.9C287.201 175 286.601 175 285.901 175.1C283.901 175.3 281.901 175.5 279.801 175.6C279.001 175.7 278.201 175.7 277.401 175.8C274.901 176 272.401 176.1 269.901 176.2C269.401 176.2 268.901 176.2 268.301 176.3C265.401 176.4 262.401 176.4 259.501 176.4C258.801 176.4 258.101 176.4 257.301 176.4C254.901 176.4 252.501 176.3 250.101 176.2C249.401 176.2 248.801 176.2 248.101 176.1C245.201 176 242.301 175.8 239.401 175.5C238.801 175.4 238.201 175.4 237.601 175.3C235.201 175.1 232.801 174.8 230.401 174.5C229.701 174.4 228.901 174.3 228.201 174.2C225.301 173.8 222.501 173.4 219.601 172.9C219.201 172.8 218.801 172.7 218.401 172.7C215.901 172.3 213.401 171.8 211.001 171.2C210.301 171 209.501 170.9 208.801 170.7C206.001 170.1 203.201 169.4 200.501 168.7C198.501 168.2 196.601 167.6 194.601 167C194.001 166.8 193.401 166.6 192.801 166.4C191.501 166 190.201 165.6 188.801 165.1C188.101 164.9 187.401 164.6 186.701 164.4C185.501 164 184.301 163.5 183.101 163.1C182.401 162.8 181.701 162.6 181.001 162.3C179.801 161.8 178.601 161.4 177.501 160.9C176.801 160.6 176.201 160.4 175.501 160.1C174.101 159.5 172.801 158.9 171.501 158.3C171.101 158.1 170.601 157.9 170.201 157.7C168.501 156.9 166.701 156 165.001 155.1C164.601 154.9 164.201 154.7 163.801 154.5C162.301 153.7 160.901 152.9 159.401 152.1C131.101 135.8 117.001 114.4 117.101 93L117.001 115.1C116.901 136.5 131.101 157.9 159.301 174.2C159.701 174.4 160.101 174.7 160.501 174.9C161.501 175.5 162.601 176 163.601 176.6C164.001 176.8 164.401 177 164.801 177.2C166.501 178.1 168.201 178.9 170.001 179.8C170.401 180 170.901 180.2 171.301 180.4C172.601 181 174.001 181.6 175.301 182.2C175.901 182.5 176.601 182.7 177.301 183C178.501 183.5 179.701 184 180.901 184.4C181.601 184.7 182.301 184.9 183.001 185.2C184.201 185.6 185.401 186.1 186.601 186.5C187.301 186.7 188.001 187 188.701 187.2C190.001 187.6 191.301 188.1 192.701 188.5C193.301 188.7 193.901 188.9 194.501 189.1C196.401 189.7 198.401 190.2 200.301 190.8C203.001 191.5 205.801 192.2 208.601 192.8C209.301 193 210.101 193.1 210.801 193.3C213.201 193.8 215.701 194.3 218.201 194.8C218.601 194.9 219.001 195 219.401 195C222.201 195.5 225.101 195.9 228.001 196.3C228.701 196.4 229.501 196.5 230.201 196.6C232.601 196.9 235.001 197.2 237.401 197.4C238.001 197.5 238.601 197.5 239.201 197.6C242.101 197.9 245.001 198.1 247.901 198.2C248.601 198.2 249.201 198.3 249.901 198.3C252.301 198.4 254.701 198.5 257.101 198.5C257.801 198.5 258.501 198.5 259.301 198.5C262.201 198.5 265.201 198.5 268.101 198.4C268.601 198.4 269.101 198.4 269.701 198.3C272.201 198.2 274.701 198.1 277.201 197.9C277.601 197.9 278.101 197.9 278.501 197.8C278.901 197.8 279.201 197.7 279.601 197.7C281.601 197.5 283.701 197.4 285.701 197.2C286.301 197.1 286.901 197.1 287.501 197C290.101 196.7 292.701 196.4 295.301 196C295.401 196 295.601 196 295.701 195.9C296.101 195.8 296.501 195.8 296.901 195.7C299.101 195.4 301.301 195 303.501 194.6C304.301 194.5 305.101 194.3 305.901 194.1C308.101 193.7 310.201 193.2 312.301 192.8C312.801 192.7 313.401 192.6 313.901 192.4C316.501 191.8 319.101 191.1 321.701 190.4C322.301 190.2 323.001 190 323.601 189.9C325.601 189.3 327.501 188.7 329.501 188.1C330.301 187.9 331.001 187.6 331.701 187.4C333.901 186.7 336.001 185.9 338.101 185.1C338.401 185 338.801 184.9 339.101 184.7C341.501 183.8 343.901 182.8 346.201 181.8C346.801 181.5 347.501 181.2 348.101 180.9C349.901 180.1 351.601 179.3 353.301 178.5C354.001 178.2 354.601 177.9 355.301 177.5C357.501 176.4 359.701 175.2 361.801 174C362.401 173.7 362.901 173.3 363.501 173C364.201 172.6 364.901 172.1 365.601 171.7C366.101 171.4 366.701 171 367.201 170.7C368.501 169.9 369.701 169 370.901 168.2C371.101 168 371.401 167.9 371.601 167.7C373.001 166.7 374.401 165.7 375.701 164.6C376.101 164.3 376.401 164 376.801 163.7C377.701 163 378.601 162.2 379.501 161.5C380.001 161.1 380.401 160.7 380.801 160.3C381.601 159.6 382.301 158.9 383.001 158.2C383.401 157.8 383.901 157.4 384.301 156.9C385.001 156.2 385.701 155.5 386.301 154.8C386.701 154.4 387.101 154 387.501 153.5C388.201 152.7 388.801 152 389.501 151.2C389.801 150.8 390.101 150.5 390.401 150.1C390.501 150 390.601 149.9 390.601 149.8C390.901 149.4 391.201 149 391.401 148.6C392.001 147.8 392.601 146.9 393.201 146.1C394.001 145.6 394.401 145 394.701 144.5Z" fill="#2B303F"/>
<path d="M362.1 35.1C418.3 67.5001 418.5 120.1 362.8 152.5C307 184.9 216.3 184.9 160.1 152.5C103.9 120.1 103.7 67.5001 159.4 35.1C215.2 2.70005 305.9 2.70005 362.1 35.1Z" fill="#3A4151"/>
<path d="M368.3 74.2C368.3 73.1 368.2 72 368.1 70.9C368.1 70.6 368 70.3 368 69.9C367.9 69.1 367.7 68.3 367.6 67.5C367.5 67.2 367.5 66.8 367.4 66.5C367.1 65.5 366.8 64.5 366.5 63.5C366.5 63.4 366.5 63.4 366.4 63.3C366 62.2 365.5 61.2 365 60.1C364.9 59.8 364.7 59.5 364.5 59.2C364.1 58.4 363.7 57.7 363.2 56.9C363 56.6 362.8 56.3 362.6 55.9C362 55 361.4 54.1 360.7 53.1C360.6 53 360.5 52.9 360.5 52.8C359.7 51.8 358.9 50.8 358 49.8C357.7 49.5 357.5 49.2 357.2 49C356.5 48.3 355.8 47.5 355 46.8C354.8 46.6 354.7 46.4 354.5 46.3C354.4 46.2 354.2 46.1 354.1 45.9C353.1 45 352.1 44.1 351.1 43.3C351 43.2 350.9 43.1 350.7 43C349.5 42 348.2 41.1 346.9 40.2C346.5 39.9 346.1 39.7 345.8 39.4C344.8 38.7 343.7 38 342.6 37.4C342.2 37.1 341.8 36.9 341.3 36.6C339.8 35.7 338.3 34.8 336.7 34C335.1 33.1 333.4 32.3 331.6 31.5C331.4 31.4 331.2 31.3 331 31.2C330.8 31.1 330.5 31 330.2 30.9C328.4 30.1 326.5 29.3 324.6 28.5C324.5 28.5 324.4 28.4 324.2 28.4C322.2 27.6 320.1 26.9 318.1 26.2C317.6 26 317.1 25.9 316.7 25.7C314.6 25 312.5 24.4 310.4 23.8C310.2 23.7 310 23.7 309.8 23.6C307.8 23.1 305.7 22.6 303.7 22.1C303.2 22 302.7 21.9 302.2 21.8C300 21.3 297.8 20.9 295.5 20.5C295.1 20.4 294.7 20.4 294.3 20.3C292.3 20 290.3 19.6 288.2 19.4C287.8 19.3 287.3 19.3 286.9 19.2C284.6 18.9 282.3 18.6 280 18.4C279.5 18.4 279 18.3 278.5 18.3C276.4 18.1 274.3 18 272.1 17.8C271.8 17.8 271.5 17.8 271.2 17.7C268.9 17.6 266.5 17.5 264.2 17.5C263.7 17.5 263.1 17.5 262.6 17.5C260.2 17.5 257.9 17.5 255.5 17.5C255.5 17.5 255.5 17.5 255.4 17.5C253 17.6 250.6 17.7 248.3 17.8C247.8 17.8 247.2 17.9 246.7 17.9C244.4 18.1 242 18.3 239.7 18.5C239.4 18.5 239.1 18.6 238.8 18.6C236.7 18.8 234.6 19.1 232.5 19.4C232 19.5 231.5 19.5 231 19.6C228.7 19.9 226.5 20.3 224.3 20.7C223.9 20.8 223.5 20.9 223 20.9C221 21.3 219 21.7 217.1 22.2C216.7 22.3 216.3 22.4 215.9 22.5C213.7 23 211.6 23.6 209.5 24.2C209.3 24.3 209.1 24.3 208.9 24.4C208.6 24.5 208.3 24.6 208 24.7C206.5 25.2 204.9 25.6 203.4 26.1C203 26.2 202.5 26.4 202.1 26.5C200.2 27.1 198.4 27.8 196.6 28.5C196.2 28.6 195.9 28.8 195.5 29C194 29.6 192.6 30.2 191.2 30.8C190.7 31 190.2 31.2 189.8 31.5C188.1 32.3 186.4 33.1 184.7 34C183.3 34.8 181.9 35.5 180.5 36.3C180.4 36.4 180.3 36.4 180.2 36.5C179.6 36.9 179 37.2 178.5 37.6C178.1 37.9 177.6 38.1 177.2 38.4C176.4 38.9 175.7 39.4 174.9 40C174.6 40.2 174.3 40.4 174 40.6C173 41.3 172 42.1 171.1 42.8C170.9 42.9 170.8 43.1 170.6 43.2C169.9 43.8 169.1 44.4 168.4 45C168.1 45.3 167.8 45.6 167.5 45.8C167 46.3 166.4 46.8 165.9 47.3C165.6 47.6 165.3 47.9 165 48.3C164.5 48.8 164.1 49.2 163.7 49.7C163.4 50 163.1 50.4 162.8 50.7C162.4 51.2 162 51.6 161.7 52.1C161.4 52.5 161.2 52.8 160.9 53.2C160.6 53.7 160.2 54.1 159.9 54.6C159.7 55 159.4 55.3 159.2 55.7C158.9 56.2 158.6 56.6 158.3 57.1C158.1 57.5 157.9 57.8 157.7 58.2C157.4 58.7 157.2 59.1 157 59.6C156.8 60 156.6 60.3 156.5 60.7C156.3 61.2 156.1 61.7 155.9 62.1C155.8 62.5 155.6 62.8 155.5 63.2C155.3 63.7 155.2 64.2 155 64.7C154.9 65.1 154.8 65.4 154.7 65.8C154.6 66.3 154.5 66.8 154.3 67.4C154.2 67.7 154.1 68.1 154.1 68.4C154 69 153.9 69.6 153.9 70.1C153.9 70.4 153.8 70.7 153.8 71C153.7 71.9 153.7 72.7 153.7 73.6L153.6 95.7C153.6 94.8 153.6 94 153.7 93.1C153.7 92.8 153.8 92.5 153.8 92.2C153.9 91.6 153.9 91 154 90.5C154.1 90.2 154.1 89.8 154.2 89.5C154.3 89 154.4 88.5 154.6 87.9C154.7 87.5 154.8 87.2 154.9 86.8C155.1 86.3 155.2 85.8 155.4 85.3C155.5 84.9 155.7 84.6 155.8 84.2C156 83.7 156.2 83.2 156.4 82.8C156.6 82.4 156.7 82.1 156.9 81.7C157.1 81.2 157.4 80.8 157.6 80.3C157.8 79.9 158 79.6 158.2 79.2C158.5 78.7 158.8 78.3 159.1 77.8C159.3 77.4 159.6 77.1 159.8 76.7C160.1 76.2 160.5 75.8 160.8 75.3C161.1 74.9 161.3 74.6 161.6 74.2C162 73.7 162.4 73.3 162.8 72.8C163.1 72.5 163.4 72.1 163.7 71.8C164.1 71.3 164.6 70.9 165 70.4C165.3 70.1 165.6 69.8 165.9 69.4C166.4 68.9 166.9 68.4 167.5 67.9C167.8 67.6 168.1 67.3 168.4 67.1C169.1 66.5 169.8 65.9 170.6 65.3C170.8 65.2 171 65 171.1 64.8C172 64.1 173 63.3 174 62.6C174.3 62.4 174.6 62.2 174.9 62C175.6 61.5 176.4 61 177.2 60.4C177.6 60.1 178.1 59.9 178.5 59.6C179.2 59.2 179.9 58.8 180.6 58.3C181.9 57.5 183.3 56.7 184.8 56C186.5 55.1 188.2 54.3 189.9 53.5C190.4 53.3 190.9 53.1 191.3 52.8C192.7 52.2 194.2 51.5 195.6 51C196 50.9 196.3 50.7 196.7 50.5C198.5 49.8 200.3 49.1 202.2 48.5C202.6 48.3 203.1 48.2 203.6 48.1C205.1 47.6 206.6 47.1 208.2 46.7C208.7 46.6 209.2 46.4 209.7 46.3C211.8 45.7 213.9 45.1 216.1 44.6C216.5 44.5 216.9 44.4 217.3 44.3C219.2 43.8 221.2 43.4 223.2 43C223.6 42.9 224 42.8 224.5 42.7C226.7 42.3 229 41.9 231.2 41.6C231.7 41.5 232.2 41.5 232.7 41.4C234.8 41.1 236.9 40.8 239 40.6C239.3 40.6 239.6 40.5 239.9 40.5C242.2 40.3 244.5 40.1 246.9 39.9C247.4 39.9 248 39.8 248.5 39.8C250.9 39.7 253.2 39.5 255.6 39.5H255.7C258.1 39.4 260.4 39.4 262.8 39.5C263.3 39.5 263.9 39.5 264.4 39.5C266.8 39.5 269.1 39.6 271.4 39.7C271.7 39.7 272 39.7 272.3 39.8C274.4 39.9 276.6 40.1 278.7 40.3C279.2 40.3 279.7 40.4 280.2 40.4C282.5 40.6 284.8 40.9 287.1 41.2C287.5 41.3 288 41.3 288.4 41.4C290.4 41.7 292.5 42 294.5 42.3C294.9 42.4 295.3 42.4 295.7 42.5C297.9 42.9 300.2 43.4 302.4 43.8C302.9 43.9 303.4 44 303.9 44.1C306 44.6 308 45.1 310 45.6C310.2 45.7 310.4 45.7 310.6 45.8C312.8 46.4 314.9 47 317 47.7C317.5 47.9 318 48 318.4 48.2C320.5 48.9 322.5 49.6 324.5 50.4C324.6 50.4 324.7 50.5 324.8 50.5C326.7 51.2 328.6 52 330.4 52.9C330.9 53.1 331.3 53.3 331.8 53.5C333.5 54.3 335.2 55.1 336.9 56C338.5 56.8 340 57.7 341.5 58.6C341.9 58.9 342.4 59.1 342.8 59.4C343.9 60.1 344.9 60.8 346 61.4C346.4 61.7 346.8 61.9 347.1 62.2C348.4 63.1 349.7 64.1 350.9 65C351 65.1 351.1 65.2 351.3 65.3C352.4 66.2 353.4 67 354.4 67.9C354.7 68.2 355 68.5 355.4 68.8C356.2 69.5 356.9 70.3 357.6 71C357.9 71.3 358.1 71.6 358.4 71.8C359.3 72.8 360.2 73.8 360.9 74.8C361 74.9 361.1 75 361.1 75.1C361.8 76 362.4 76.9 363 77.9C363.2 78.2 363.4 78.5 363.6 78.9C364.1 79.7 364.5 80.4 364.9 81.2C365.1 81.5 365.2 81.8 365.4 82.1C365.9 83.2 366.4 84.2 366.8 85.3C366.8 85.4 366.8 85.4 366.9 85.5C367.3 86.5 367.6 87.5 367.8 88.5C367.9 88.8 368 89.2 368 89.5C368.2 90.3 368.3 91.1 368.4 91.9C368.4 92.2 368.5 92.5 368.5 92.9C368.6 94 368.7 95.1 368.7 96.1L368.3 74.2Z" fill="#2B303F"/>
<path d="M374.2 129.4C374.7 128.8 375.3 128.2 375.8 127.6C376.2 127.2 376.5 126.7 376.8 126.3C377.3 125.7 377.7 125.1 378.2 124.5C378.5 124 378.8 123.6 379.2 123.1C379.6 122.5 380 121.9 380.4 121.3C380.7 120.8 381 120.3 381.3 119.9C381.7 119.3 382 118.7 382.3 118.1C382.6 117.6 382.8 117.1 383 116.7C383.3 116.1 383.6 115.5 383.9 114.9C384.1 114.4 384.3 113.9 384.5 113.4C384.8 112.8 385 112.1 385.2 111.5C385.4 111 385.5 110.5 385.7 110.1C385.9 109.5 386.1 108.8 386.3 108.2C386.4 107.7 386.6 107.3 386.7 106.8C386.9 106.1 387 105.4 387.1 104.8C387.2 104.4 387.3 103.9 387.4 103.5C387.5 102.7 387.6 102 387.7 101.2C387.7 100.8 387.8 100.5 387.8 100.1C387.9 99 387.9 97.8 387.9 96.7L388 74.6C388 75.7 387.9 76.9 387.9 78C387.9 78.4 387.8 78.7 387.8 79.1C387.7 79.9 387.6 80.6 387.5 81.4C387.4 81.8 387.3 82.3 387.2 82.7C387.1 83.4 386.9 84.1 386.8 84.7C386.7 85.2 386.5 85.6 386.4 86.1C386.2 86.7 386 87.4 385.8 88C385.6 88.5 385.5 89 385.3 89.4C385.1 90 384.8 90.7 384.6 91.3C384.4 91.8 384.2 92.3 384 92.8C383.7 93.4 383.4 94 383.1 94.6C382.9 95.1 382.6 95.6 382.4 96C382.1 96.6 381.7 97.2 381.4 97.8C381.1 98.3 380.8 98.8 380.5 99.2C380.1 99.8 379.7 100.4 379.3 101C379 101.5 378.7 101.9 378.3 102.4C377.9 103 377.4 103.6 376.9 104.2C376.6 104.6 376.2 105.1 375.9 105.5C375.4 106.1 374.9 106.7 374.3 107.3C373.9 107.7 373.6 108.1 373.2 108.6C372.6 109.3 372 109.9 371.3 110.5C370.9 110.9 370.6 111.2 370.2 111.6C369.4 112.4 368.5 113.2 367.6 114C367.4 114.2 367.2 114.4 367 114.6C365.9 115.6 364.7 116.5 363.5 117.5C363.2 117.8 362.8 118 362.5 118.3C361.6 119 360.7 119.7 359.8 120.3C359.3 120.6 358.8 121 358.3 121.3C357.5 121.9 356.7 122.4 355.8 123C354.2 124 352.6 125.1 350.9 126C348.9 127.1 346.9 128.2 344.9 129.3C344.3 129.6 343.8 129.9 343.2 130.2C341.5 131 339.8 131.8 338.1 132.6C337.7 132.8 337.2 133 336.8 133.2C334.7 134.1 332.5 135 330.3 135.8C329.8 136 329.2 136.2 328.7 136.4C326.9 137.1 325.1 137.7 323.3 138.3C322.7 138.5 322.1 138.7 321.5 138.9C319 139.7 316.5 140.4 313.9 141.1C313.4 141.2 313 141.3 312.5 141.5C310.2 142.1 307.9 142.6 305.5 143.1C305 143.2 304.5 143.3 304 143.4C301.4 143.9 298.7 144.4 296 144.9C295.4 145 294.8 145.1 294.2 145.2C291.7 145.6 289.2 145.9 286.7 146.2C286.4 146.2 286 146.3 285.7 146.3C283 146.6 280.2 146.9 277.4 147.1C276.8 147.1 276.1 147.2 275.5 147.2C272.7 147.4 269.9 147.5 267.1 147.6C267.1 147.6 267.1 147.6 267 147.6C264.2 147.7 261.4 147.7 258.6 147.7C258 147.7 257.3 147.7 256.7 147.7C253.9 147.6 251.1 147.6 248.4 147.4C248 147.4 247.7 147.3 247.3 147.3C244.8 147.1 242.3 146.9 239.8 146.7C239.2 146.6 238.6 146.6 238 146.5C235.3 146.2 232.6 145.9 229.8 145.5C229.3 145.4 228.8 145.3 228.2 145.3C225.8 144.9 223.4 144.5 221 144.1C220.5 144 220.1 143.9 219.6 143.8C217 143.3 214.3 142.7 211.7 142.1C211.1 142 210.5 141.8 210 141.7C207.6 141.1 205.2 140.4 202.8 139.7C202.6 139.6 202.3 139.6 202.1 139.5C199.6 138.7 197.1 137.9 194.6 137C194 136.8 193.5 136.6 192.9 136.4C190.4 135.5 188 134.6 185.6 133.5C185.5 133.4 185.3 133.4 185.2 133.3C182.9 132.3 180.7 131.3 178.6 130.2C178.1 129.9 177.5 129.7 177 129.4C175 128.4 173 127.3 171 126.2C169.6 125.4 168.3 124.6 166.9 123.7C166.6 123.5 166.2 123.3 165.9 123.1C164.7 122.3 163.5 121.5 162.3 120.7C162.2 120.6 162.1 120.6 162.1 120.5C160.9 119.6 159.7 118.8 158.6 117.9C158.3 117.7 158 117.4 157.7 117.2C156.7 116.4 155.7 115.6 154.7 114.8C154.6 114.7 154.5 114.6 154.4 114.5C153.4 113.6 152.4 112.7 151.4 111.7C151.2 111.5 150.9 111.2 150.7 111C149.9 110.2 149 109.3 148.3 108.5C148.2 108.4 148.1 108.3 148 108.1C147.1 107.2 146.3 106.2 145.5 105.2C145.3 105 145.1 104.7 144.9 104.5C144.2 103.6 143.5 102.7 142.9 101.8C142.8 101.7 142.8 101.6 142.7 101.5C142 100.5 141.4 99.5 140.8 98.5C140.6 98.3 140.5 98 140.4 97.8C139.8 96.9 139.3 95.9 138.8 95C138.8 94.9 138.7 94.8 138.7 94.8C138.2 93.8 137.7 92.8 137.3 91.7C137.2 91.4 137.1 91.2 137 90.9C136.6 89.9 136.2 88.9 135.9 88C135.9 87.9 135.9 87.9 135.8 87.8C135.5 86.8 135.2 85.7 134.9 84.7C134.8 84.4 134.8 84.2 134.7 83.9C134.5 82.9 134.2 81.9 134.1 80.8V80.7C133.9 79.7 133.8 78.6 133.7 77.6C133.7 77.3 133.7 77.1 133.6 76.8C133.5 75.7 133.5 74.7 133.5 73.6L133.4 95.7C133.4 96.8 133.4 97.8 133.5 98.9C133.5 99.2 133.5 99.4 133.6 99.7C133.7 100.8 133.8 101.8 134 102.8V102.9C134.2 103.9 134.4 104.9 134.6 106C134.7 106.3 134.7 106.5 134.8 106.8C135.1 107.8 135.4 108.9 135.7 109.9C135.7 110 135.7 110 135.8 110.1C136.1 111.1 136.5 112.1 136.9 113C137 113.3 137.1 113.5 137.2 113.8C137.6 114.8 138.1 115.8 138.6 116.9C138.6 117 138.7 117.1 138.7 117.1C139.2 118 139.7 119 140.3 119.9C140.4 120.1 140.6 120.4 140.7 120.6C141.3 121.6 142 122.6 142.6 123.6C142.7 123.7 142.7 123.8 142.8 123.9C143.4 124.8 144.1 125.7 144.8 126.6C145 126.8 145.2 127.1 145.4 127.3C146.2 128.3 147 129.2 147.9 130.2C148 130.3 148.1 130.4 148.2 130.5C148.7 131.1 149.2 131.6 149.8 132.2C150.1 132.5 150.4 132.8 150.7 133.1C150.9 133.3 151.2 133.6 151.4 133.8C152.4 134.7 153.3 135.7 154.4 136.6C154.5 136.7 154.6 136.8 154.7 136.9C155.7 137.7 156.6 138.5 157.7 139.4C158 139.6 158.3 139.9 158.6 140.1C159.7 141 160.9 141.9 162.1 142.7C162.2 142.8 162.3 142.8 162.3 142.9C163.5 143.7 164.7 144.5 165.9 145.3C166.2 145.5 166.6 145.7 166.9 145.9C168.2 146.7 169.6 147.6 171 148.4C172.9 149.5 175 150.6 177 151.6C177.2 151.7 177.5 151.9 177.7 152C178 152.1 178.3 152.3 178.6 152.4C180.8 153.5 183 154.5 185.2 155.5C185.3 155.6 185.5 155.6 185.6 155.7C188 156.7 190.4 157.7 192.9 158.6C193.5 158.8 194 159 194.6 159.2C197.1 160.1 199.6 160.9 202.1 161.7C202.3 161.8 202.6 161.8 202.8 161.9C205.2 162.6 207.6 163.3 210 163.9C210.6 164 211.2 164.2 211.7 164.3C214.3 164.9 216.9 165.5 219.6 166C220.1 166.1 220.5 166.2 221 166.3C223.4 166.8 225.8 167.2 228.2 167.5C228.7 167.6 229.2 167.7 229.8 167.7C232.5 168.1 235.2 168.4 237.9 168.7C238.5 168.8 239.1 168.8 239.7 168.9C242.2 169.1 244.7 169.3 247.2 169.5C247.6 169.5 247.9 169.6 248.3 169.6C251.1 169.8 253.8 169.9 256.6 169.9C257.2 169.9 257.9 169.9 258.5 169.9C261.3 169.9 264.1 169.9 266.9 169.9H267C269.8 169.8 272.6 169.7 275.4 169.5C276 169.5 276.7 169.4 277.3 169.4C280.1 169.2 282.8 168.9 285.6 168.6C285.9 168.6 286.3 168.5 286.6 168.5C289.1 168.2 291.6 167.9 294.1 167.5C294.7 167.4 295.3 167.3 295.9 167.2C298.6 166.8 301.2 166.3 303.9 165.7C304.4 165.6 304.9 165.5 305.4 165.4C307.7 164.9 310.1 164.3 312.4 163.8C312.9 163.7 313.3 163.6 313.8 163.4C316.4 162.7 318.9 162 321.4 161.2C321.6 161.1 321.9 161.1 322.1 161C322.5 160.9 322.8 160.7 323.2 160.6C325 160 326.8 159.4 328.6 158.7C329.1 158.5 329.7 158.3 330.2 158.1C332.4 157.3 334.6 156.4 336.7 155.5C337.1 155.3 337.6 155.1 338 154.9C339.7 154.1 341.4 153.3 343.1 152.5C343.7 152.2 344.2 151.9 344.8 151.6C346.8 150.6 348.9 149.5 350.8 148.3C352.5 147.3 354.1 146.3 355.7 145.3C355.8 145.2 356 145.1 356.1 145.1C356.8 144.6 357.5 144.2 358.1 143.7C358.6 143.4 359.1 143 359.6 142.7C360.5 142 361.4 141.4 362.3 140.7C362.6 140.4 363 140.2 363.4 139.9C364.6 138.9 365.8 138 366.9 137C367.1 136.8 367.3 136.6 367.5 136.4C368.4 135.6 369.3 134.8 370.1 134C370.5 133.6 370.8 133.3 371.2 132.9C371.8 132.3 372.5 131.6 373.1 131C373.5 130.3 373.8 129.8 374.2 129.4Z" fill="#2B303F"/>
<path d="M335.6 115.6C301.3 133 249.3 136 208.6 124.7C200 122.3 191.9 119.3 184.5 115.6C142.7 94.6 142.4 60.5001 184 39.4001C219.3 21.6001 273.3 18.9 314.4 31.3C319.7 33 377.2 94.6 335.6 115.6Z" fill="#404756"/>
<path d="M335.6 115.6C301.3 133 234.7 131.1 194 119.8L314.4 31.3C320.9 32.8 370.2 69.3 365.4 85.6C362.2 96.7 352.3 107.2 335.6 115.6Z" fill="#383F4C"/>
<path d="M350.3 21.8C400.1 50.6 400.4 97.2 350.9 126C301.4 154.8 220.9 154.8 171 126C121.2 97.2 120.9 50.6 170.4 21.8C220 -6.89997 300.5 -6.89997 350.3 21.8ZM184.9 112.2C227.1 133.9 295.2 133.9 337 112.2C378.9 90.5 378.7 55.4 336.5 33.7C294.4 12 226.3 12 184.4 33.7C142.5 55.3 142.7 90.5 184.9 112.2Z" fill="#3A4151"/>
<path d="M373.2 215.7L363.9 350.1L363.7 353.3C357.9 359.2 350.1 364.8 340.3 369.6C339.4 370.1 338.4 370.5 337.4 370.9C336.7 371.2 336.1 371.5 335.4 371.8C334.9 372 334.3 372.3 333.8 372.5C333 372.8 332.2 373.1 331.4 373.5C331 373.7 330.7 373.8 330.3 374C330.1 374.1 329.9 374.2 329.7 374.2C329.3 374.4 328.9 374.5 328.4 374.7C327.9 374.9 327.4 375.1 326.8 375.3C326.2 375.5 325.6 375.8 324.9 376C324.5 376.1 324.1 376.3 323.8 376.4C323.6 376.5 323.3 376.6 323.1 376.7C321.8 377.1 320.5 377.6 319.2 378C318.7 378.1 318.2 378.3 317.8 378.4C316.6 378.7 315.4 379.1 314.3 379.4C313.7 379.6 313 379.8 312.4 379.9C312.2 380 311.9 380 311.7 380.1C311.5 380.1 311.4 380.2 311.3 380.2C310.7 380.3 310.1 380.5 309.5 380.6C308.6 380.8 307.8 381 306.9 381.2C306.3 381.3 305.6 381.5 305 381.6C304.6 381.7 304.2 381.8 303.9 381.8C303 382 302.1 382.2 301.3 382.3C301.1 382.3 300.8 382.4 300.6 382.4C300.1 382.5 299.7 382.6 299.2 382.7C297.9 382.9 296.6 383.2 295.3 383.4C294.9 383.5 294.4 383.6 294 383.6C293.8 383.6 293.6 383.7 293.4 383.7C291.9 383.9 290.3 384.1 288.8 384.3C288.5 384.3 288.3 384.4 288 384.4C287.9 384.4 287.8 384.4 287.6 384.5C286.6 384.6 285.7 384.7 284.7 384.8C283.7 384.9 282.7 385 281.8 385.1C281.5 385.1 281.3 385.2 281 385.2C280.7 385.2 280.5 385.2 280.2 385.3C279.9 385.3 279.5 385.4 279.1 385.4C278.8 385.4 278.4 385.5 278 385.5C277.6 385.5 277.3 385.6 276.9 385.6C276.5 385.6 276.2 385.7 275.8 385.7C275.6 385.7 275.5 385.7 275.4 385.7C274.8 385.7 274.3 385.8 273.7 385.8C273.4 385.8 273.2 385.8 272.9 385.8C272.6 385.8 272.4 385.8 272.1 385.8C271.3 385.8 270.6 385.9 269.8 385.9C269.2 385.9 268.7 385.9 268.1 386C267.9 386 267.8 386 267.6 386C267.3 386 267.1 386 266.8 386C266 386 265.3 386 264.5 386.1C264.2 386.1 264 386.1 263.7 386.1C263.3 386.1 262.8 386.1 262.4 386.1C262.1 386.1 261.8 386.1 261.6 386.1C260.7 386.1 259.7 386.1 258.8 386.1C258.2 386.1 257.6 386.1 257.1 386.1C256.7 386.1 256.4 386.1 256 386.1C254 386.1 252.1 386 250.1 385.9C249.6 385.9 249.1 385.8 248.6 385.8C247.1 385.7 245.6 385.6 244.2 385.5C243.5 385.4 242.8 385.4 242.1 385.3C240.8 385.2 239.6 385.1 238.3 384.9C237.6 384.8 236.8 384.7 236.1 384.7C234.8 384.6 233.6 384.4 232.3 384.2C231.6 384.1 230.9 384 230.2 383.9C228.8 383.7 227.4 383.5 226 383.2C225.5 383.1 225 383 224.5 383C222.6 382.7 220.7 382.3 218.9 381.9C218.5 381.8 218.1 381.7 217.7 381.6C216.3 381.3 214.8 381 213.4 380.6C212.8 380.4 212.1 380.3 211.5 380.1C210.3 379.8 209.1 379.5 207.9 379.2C207.2 379 206.5 378.8 205.9 378.6C204.7 378.3 203.6 377.9 202.4 377.6C201.8 377.4 201.1 377.2 200.5 377C199.2 376.6 198 376.2 196.7 375.7C196.3 375.6 195.9 375.4 195.5 375.3C195.4 375.3 195.4 375.2 195.3 375.2C193.2 374.4 191.1 373.6 189.1 372.8C188.6 372.6 188.2 372.4 187.7 372.2C185.6 371.3 183.6 370.4 181.6 369.4C171.5 364.4 163.5 358.6 157.6 352.4L157 349L148.4 215.4C153.1 218.8 158.5 222.1 164.6 225.1C218.1 251.9 304.6 251.9 357.7 225.1C363.5 222.1 368.6 219 373.2 215.7Z" fill="#D9DBE2"/>
<path d="M333.6 118.6C330.8 120.6 331.1 123.4 334.2 124.8L336.5 125.8C339.6 127.2 344.5 126.7 347.2 124.6L367.7 109.6C370.5 107.6 370.2 104.8 367.1 103.4L364.8 102.4C361.7 101 356.9 101.5 354.1 103.6L333.6 118.6Z" fill="#2B303F"/>
<path d="M160.961 469.168C161.461 468.568 161.961 467.968 162.361 467.368C162.461 467.168 162.661 466.968 162.761 466.868C163.261 466.068 163.761 465.368 164.261 464.568C164.361 464.368 164.461 464.268 164.561 464.068C164.961 463.468 165.261 462.768 165.561 462.168C165.661 461.968 165.761 461.668 165.861 461.468C166.161 460.768 166.461 460.168 166.661 459.468C166.661 459.368 166.761 459.168 166.761 459.068C167.061 458.268 167.261 457.468 167.461 456.668C167.561 456.468 167.561 456.268 167.561 456.068C167.661 455.468 167.761 454.768 167.861 454.168C167.861 453.968 167.961 453.668 167.961 453.468C168.061 452.668 168.061 451.868 168.061 450.968V436.268C168.061 437.068 167.961 437.868 167.961 438.768C167.961 438.968 167.861 439.268 167.861 439.468C167.761 440.068 167.661 440.768 167.561 441.368C167.561 441.568 167.461 441.768 167.461 441.968C167.261 442.768 167.061 443.568 166.761 444.368C166.761 444.468 166.661 444.668 166.561 444.768C166.361 445.468 166.061 446.168 165.761 446.768C165.661 446.968 165.561 447.268 165.461 447.468C165.161 448.068 164.861 448.768 164.461 449.368C164.361 449.568 164.261 449.668 164.161 449.868C163.661 450.668 163.161 451.368 162.661 452.168C162.561 452.368 162.361 452.568 162.261 452.668C161.861 453.268 161.361 453.868 160.861 454.468C160.661 454.668 160.461 454.868 160.261 455.168C159.661 455.868 159.061 456.468 158.461 457.168C158.361 457.268 158.261 457.368 158.261 457.468C157.561 458.168 156.861 458.868 156.061 459.468C155.861 459.668 155.561 459.868 155.361 460.068C154.761 460.568 154.161 461.068 153.561 461.468C153.261 461.668 152.961 461.868 152.661 462.168C152.061 462.568 151.461 463.068 150.761 463.468C150.461 463.668 150.161 463.868 149.861 464.068C148.961 464.668 147.961 465.268 146.961 465.868C145.261 466.868 143.461 467.768 141.661 468.668C141.261 468.868 140.861 468.968 140.461 469.168C139.061 469.768 137.661 470.368 136.261 470.968C135.661 471.168 135.061 471.468 134.461 471.668C133.161 472.168 131.861 472.568 130.461 473.068C129.861 473.268 129.261 473.468 128.661 473.668C126.861 474.168 125.061 474.668 123.161 475.168C123.061 475.168 122.961 475.268 122.761 475.268C120.761 475.768 118.761 476.168 116.761 476.468C116.161 476.568 115.561 476.668 114.961 476.768C113.461 476.968 112.061 477.168 110.561 477.368C109.861 477.468 109.161 477.568 108.461 477.568C106.861 477.768 105.261 477.868 103.761 477.968C103.261 477.968 102.661 478.068 102.161 478.068C100.061 478.168 97.9614 478.268 95.8614 478.268C95.3614 478.268 94.9614 478.268 94.4614 478.268C92.7614 478.268 91.1614 478.168 89.4614 478.168C88.7614 478.168 88.0614 478.068 87.3614 478.068C85.8614 477.968 84.3614 477.868 82.8614 477.668C82.2614 477.568 81.5614 477.568 80.9614 477.468C79.0614 477.268 77.0614 476.968 75.1614 476.668C75.0614 476.668 74.8614 476.668 74.7614 476.568C72.7614 476.168 70.7614 475.768 68.7614 475.368C68.1614 475.268 67.5614 475.068 66.9614 474.968C65.5614 474.568 64.1614 474.268 62.7614 473.868C62.1614 473.668 61.4614 473.468 60.8614 473.268C59.0614 472.668 57.3614 472.168 55.6614 471.468C55.5614 471.468 55.5614 471.468 55.4614 471.368C53.6614 470.668 51.9614 469.968 50.2614 469.168C49.8614 468.968 49.4614 468.768 49.0614 468.568C47.3614 467.768 45.7614 466.868 44.1614 465.968C42.9614 465.268 41.7614 464.568 40.6614 463.768C40.3614 463.568 39.9614 463.268 39.6614 463.068C39.3614 462.868 39.0614 462.668 38.6614 462.368C38.2614 462.068 37.8614 461.768 37.3614 461.468C37.0614 461.268 36.7614 460.968 36.4614 460.768C36.0614 460.468 35.6614 460.068 35.2614 459.768C34.9614 459.568 34.7614 459.268 34.4614 459.068C34.0614 458.668 33.6614 458.368 33.2614 457.968C33.0614 457.768 32.7614 457.568 32.5614 457.368C32.1614 456.968 31.7614 456.568 31.3614 456.068C31.2614 455.868 31.0614 455.768 30.8614 455.568C30.3614 454.968 29.8614 454.368 29.3614 453.768C29.2614 453.668 29.1614 453.468 29.0614 453.368C28.6614 452.868 28.3614 452.468 27.9614 451.968C27.7614 451.768 27.6614 451.568 27.5614 451.268C27.2614 450.868 27.0614 450.468 26.7614 450.068C26.5614 449.868 26.4614 449.568 26.3614 449.268C26.1614 448.868 25.9614 448.568 25.7614 448.168C25.6614 447.868 25.4614 447.668 25.3614 447.368C25.1614 446.968 25.0614 446.668 24.8614 446.268C24.7614 445.968 24.6614 445.768 24.5614 445.468C24.4614 445.068 24.2614 444.768 24.1614 444.368C24.0614 444.068 23.9614 443.868 23.8614 443.568C23.7614 443.168 23.6614 442.868 23.5614 442.468C23.4614 442.168 23.4614 441.968 23.3614 441.668C23.2614 441.268 23.1614 440.868 23.1614 440.468C23.1614 440.168 23.0614 439.968 23.0614 439.668C22.9614 439.268 22.9614 438.768 22.8614 438.368C22.8614 438.168 22.7614 437.968 22.7614 437.768C22.7614 437.168 22.6614 436.468 22.6614 435.868V450.568C22.6614 451.168 22.6614 451.868 22.7614 452.468C22.7614 452.668 22.7614 452.868 22.8614 453.068C22.8614 453.468 22.9614 453.968 23.0614 454.368C23.0614 454.668 23.1614 454.868 23.1614 455.168C23.2614 455.568 23.2614 455.968 23.3614 456.368C23.4614 456.668 23.4614 456.868 23.5614 457.168C23.6614 457.568 23.7614 457.968 23.8614 458.268C23.9614 458.568 24.0614 458.768 24.1614 459.068C24.2614 459.468 24.4614 459.768 24.5614 460.168C24.6614 460.468 24.7614 460.668 24.8614 460.968C25.0614 461.368 25.1614 461.668 25.3614 462.068C25.4614 462.368 25.6614 462.568 25.7614 462.868C25.9614 463.268 26.1614 463.568 26.3614 463.968C26.4614 464.268 26.6614 464.468 26.7614 464.768C26.9614 465.168 27.2614 465.568 27.5614 465.968C27.6614 466.168 27.8614 466.368 27.9614 466.668C28.2614 467.168 28.6614 467.568 29.0614 468.068C29.1614 468.168 29.2614 468.368 29.3614 468.468C29.8614 469.068 30.3614 469.668 30.8614 470.268C30.9614 470.468 31.1614 470.568 31.2614 470.768C31.6614 471.168 32.0614 471.668 32.4614 472.068C32.6614 472.268 32.9614 472.468 33.1614 472.668C33.5614 473.068 33.9614 473.368 34.3614 473.768C34.6614 473.968 34.8614 474.268 35.1614 474.468C35.5614 474.768 35.9614 475.168 36.3614 475.468C36.6614 475.668 36.9614 475.968 37.2614 476.168C37.6614 476.468 38.0614 476.768 38.5614 477.068C38.8614 477.268 39.1614 477.568 39.5614 477.768C39.7614 477.868 39.9614 478.068 40.1614 478.168C40.2614 478.268 40.4614 478.368 40.5614 478.468C41.6614 479.168 42.8614 479.968 44.0614 480.668C45.6614 481.568 47.2614 482.468 48.9614 483.268C49.3614 483.468 49.7614 483.668 50.1614 483.868C51.8614 484.668 53.5614 485.368 55.3614 486.068C55.4614 486.068 55.4614 486.068 55.5614 486.168C56.8614 486.668 58.1614 487.068 59.4614 487.568C59.8614 487.668 60.3614 487.868 60.7614 487.968C61.3614 488.168 62.0614 488.368 62.6614 488.568C64.0614 488.968 65.4614 489.368 66.8614 489.668C67.4614 489.768 68.0614 489.968 68.6614 490.068C70.6614 490.568 72.6614 490.968 74.6614 491.268C74.7614 491.268 74.9614 491.268 75.0614 491.368C76.9614 491.668 78.8614 491.968 80.8614 492.168C81.4614 492.268 82.1614 492.268 82.7614 492.368C84.2614 492.468 85.7614 492.668 87.2614 492.768C87.9614 492.768 88.6614 492.868 89.3614 492.868C91.0614 492.968 92.6614 492.968 94.3614 492.968C94.8614 492.968 95.2614 492.968 95.7614 492.968C97.8614 492.968 99.9614 492.868 102.061 492.768C102.561 492.768 103.161 492.668 103.661 492.668C105.261 492.568 106.861 492.468 108.361 492.268C109.061 492.168 109.761 492.068 110.461 492.068C111.961 491.868 113.461 491.668 114.861 491.468C115.461 491.368 116.061 491.268 116.661 491.168C118.661 490.768 120.661 490.368 122.661 489.968C122.761 489.968 122.861 489.868 123.061 489.868C124.861 489.468 126.761 488.968 128.561 488.368C129.161 488.168 129.761 487.968 130.361 487.768C131.661 487.368 133.061 486.868 134.361 486.368C134.961 486.168 135.561 485.968 136.161 485.668C137.561 485.068 138.961 484.468 140.361 483.868C140.761 483.668 141.161 483.568 141.561 483.368C141.661 483.368 141.761 483.268 141.861 483.268C143.561 482.468 145.261 481.568 146.861 480.668C147.861 480.068 148.861 479.468 149.761 478.868C150.061 478.668 150.361 478.468 150.661 478.268C151.261 477.868 151.961 477.368 152.561 476.968C152.861 476.768 153.161 476.568 153.461 476.268C154.061 475.768 154.661 475.368 155.261 474.868C155.461 474.668 155.761 474.468 155.961 474.268C156.761 473.568 157.461 472.968 158.161 472.268C158.161 472.268 158.161 472.268 158.261 472.268C158.361 472.168 158.361 472.168 158.461 472.068C159.061 471.468 159.761 470.768 160.261 470.068C160.561 469.568 160.761 469.368 160.961 469.168Z" fill="#1C1F23"/>
<path d="M146.6 407.1C175 423.5 175.2 450.1 146.9 466.5C118.6 482.9 72.7 482.9 44.3 466.5C15.9 450.1 15.7 423.5 44 407.1C72.2 390.7 118.1 390.7 146.6 407.1Z" fill="#2A2D35"/>
<path d="M165.5 427.8V425.7C165.5 426 165.5 426.4 165.4 426.7C164.8 416.1 158 405.6 144.8 397.5C117.3 380.7 73 380.7 45.7 397.5C32.7 405.5 25.9 416 25.4 426.5C25.4 426.1 25.4 425.7 25.4 425.3V435.2C25.4 435.8 25.4 436.4 25.5 437.1C25.5 437.3 25.5 437.5 25.6 437.7C25.6 438.1 25.7 438.5 25.8 439C25.8 439.2 25.9 439.5 25.9 439.7C26 440.1 26 440.5 26.1 440.8C26.2 441.1 26.2 441.3 26.3 441.6C26.4 442 26.5 442.3 26.6 442.7C26.7 443 26.8 443.2 26.9 443.5C27 443.9 27.2 444.2 27.3 444.6C27.4 444.9 27.5 445.1 27.6 445.4C27.8 445.8 27.9 446.1 28.1 446.5C28.2 446.8 28.3 447 28.5 447.3C28.7 447.7 28.9 448 29.1 448.4C29.2 448.6 29.4 448.9 29.5 449.1C29.7 449.5 30 449.9 30.2 450.2C30.3 450.4 30.5 450.6 30.6 450.8C30.9 451.3 31.3 451.7 31.6 452.2C31.7 452.3 31.8 452.5 31.9 452.6C32.4 453.2 32.9 453.8 33.4 454.3C33.5 454.4 33.7 454.6 33.8 454.7C34.2 455.1 34.6 455.5 35 455.9C35.2 456.1 35.4 456.3 35.7 456.5C36.1 456.8 36.4 457.2 36.8 457.5C37.1 457.7 37.3 457.9 37.6 458.2C38 458.5 38.4 458.8 38.7 459.2C39 459.4 39.3 459.6 39.6 459.9C40 460.2 40.4 460.5 40.8 460.8C41.1 461 41.4 461.2 41.7 461.5C41.9 461.6 42.1 461.8 42.3 461.9C42.4 462 42.6 462.1 42.7 462.2C43.8 462.9 44.9 463.6 46.1 464.3C47.6 465.2 49.2 466 50.9 466.8C51.3 467 51.7 467.2 52.1 467.4C53.7 468.2 55.4 468.9 57.1 469.5C57.2 469.5 57.2 469.5 57.3 469.6C58.5 470.1 59.8 470.5 61 470.9C61.4 471 61.9 471.2 62.3 471.3C62.9 471.5 63.5 471.7 64.1 471.9C65.4 472.3 66.8 472.7 68.2 473C68.8 473.1 69.3 473.3 69.9 473.4C71.8 473.8 73.8 474.2 75.7 474.6C75.8 474.6 75.9 474.6 76.1 474.7C78 475 79.8 475.3 81.7 475.5C82.3 475.6 82.9 475.6 83.6 475.7C85 475.8 86.5 476 87.9 476.1C88.6 476.1 89.2 476.2 89.9 476.2C91.5 476.3 93.1 476.3 94.7 476.3C95.1 476.3 95.6 476.3 96 476.3C98 476.3 100.1 476.2 102.1 476.1C102.6 476.1 103.1 476 103.6 476C105.1 475.9 106.7 475.8 108.2 475.6C108.9 475.5 109.5 475.5 110.2 475.4C111.6 475.2 113.1 475 114.5 474.8C115.1 474.7 115.7 474.6 116.3 474.5C118.3 474.2 120.2 473.8 122.1 473.3C122.2 473.3 122.3 473.2 122.4 473.2C124.2 472.8 126 472.3 127.7 471.8C128.3 471.6 128.8 471.4 129.4 471.3C130.7 470.9 132 470.4 133.2 470C133.8 469.8 134.4 469.6 134.9 469.3C136.3 468.8 137.6 468.2 138.9 467.6C139.3 467.4 139.6 467.3 140 467.1C140.1 467.1 140.2 467 140.3 467C141.9 466.2 143.5 465.4 145.1 464.5C146.1 463.9 147 463.3 147.9 462.8C148.2 462.6 148.4 462.4 148.7 462.2C149.3 461.8 149.9 461.4 150.5 460.9C150.8 460.7 151.1 460.5 151.3 460.3C151.9 459.8 152.5 459.4 153 458.9C153.2 458.7 153.4 458.5 153.7 458.4C154.4 457.8 155.1 457.1 155.8 456.5C155.9 456.4 155.9 456.4 156 456.3C156.6 455.7 157.2 455 157.8 454.4C158 454.2 158.2 454 158.3 453.8C158.8 453.2 159.2 452.7 159.7 452.1C159.8 451.9 160 451.7 160.1 451.6C160.6 450.9 161.1 450.1 161.6 449.4C161.7 449.2 161.8 449.1 161.9 448.9C162.2 448.3 162.6 447.7 162.9 447.1C163 446.9 163.1 446.6 163.2 446.4C163.5 445.7 163.8 445.1 164 444.4C164 444.3 164.1 444.1 164.1 444C164.4 443.2 164.6 442.4 164.8 441.7C164.8 441.5 164.9 441.3 164.9 441.1C165 440.5 165.1 439.9 165.2 439.3C165.2 439.1 165.3 438.8 165.3 438.6C165.4 437.8 165.4 437 165.4 436.2V428.8C165.5 428 165.5 427.9 165.5 427.8Z" fill="#FF5555"/>
<path d="M160.95 439.393C161.45 438.793 161.95 438.193 162.35 437.593C162.45 437.393 162.65 437.193 162.75 437.093C163.25 436.293 163.75 435.593 164.25 434.793C164.35 434.593 164.45 434.493 164.55 434.293C164.95 433.693 165.25 432.993 165.55 432.393C165.65 432.193 165.75 431.893 165.85 431.693C166.15 430.993 166.45 430.393 166.65 429.693C166.65 429.593 166.75 429.393 166.85 429.293C167.15 428.493 167.35 427.693 167.55 426.893C167.65 426.693 167.65 426.493 167.65 426.293C167.75 425.693 167.85 425.093 167.95 424.393C167.95 424.193 168.05 423.893 168.05 423.693C168.15 422.893 168.15 422.093 168.15 421.193V406.493C168.15 407.293 168.05 408.093 168.05 408.993C168.05 409.193 167.95 409.493 167.95 409.693C167.85 410.293 167.75 410.993 167.65 411.593C167.65 411.793 167.55 411.993 167.55 412.193C167.35 412.993 167.15 413.793 166.85 414.593C166.85 414.693 166.75 414.893 166.65 414.993C166.45 415.693 166.15 416.393 165.85 416.993C165.75 417.193 165.65 417.493 165.55 417.693C165.25 418.293 164.95 418.993 164.55 419.593C164.45 419.793 164.35 419.893 164.25 420.093C163.75 420.893 163.25 421.593 162.75 422.393C162.65 422.593 162.45 422.793 162.35 422.893C161.95 423.493 161.45 424.093 160.95 424.693C160.75 424.893 160.55 425.093 160.35 425.393C159.75 426.093 159.15 426.693 158.55 427.393C158.45 427.493 158.35 427.593 158.25 427.693C157.55 428.393 156.85 429.093 156.05 429.693C155.85 429.893 155.65 430.093 155.35 430.293C154.75 430.793 154.15 431.293 153.55 431.693C153.25 431.893 152.95 432.093 152.65 432.393C152.05 432.793 151.45 433.293 150.75 433.693C150.45 433.893 150.15 434.093 149.85 434.293C148.95 434.893 147.95 435.493 146.95 436.093C145.25 437.093 143.45 437.993 141.65 438.893C141.25 439.093 140.85 439.193 140.45 439.393C139.05 439.993 137.65 440.593 136.25 441.193C135.65 441.393 135.05 441.693 134.45 441.893C133.15 442.393 131.85 442.793 130.45 443.293C129.85 443.493 129.25 443.693 128.65 443.893C126.85 444.393 125.05 444.893 123.15 445.393C123.05 445.393 122.95 445.493 122.75 445.493C120.75 445.993 118.75 446.393 116.75 446.693C116.15 446.793 115.55 446.893 114.95 446.993C113.45 447.193 112.05 447.393 110.55 447.593C109.85 447.693 109.15 447.793 108.45 447.793C106.85 447.993 105.35 448.093 103.75 448.193C103.25 448.193 102.65 448.293 102.15 448.293C100.05 448.393 97.95 448.493 95.85 448.493C95.35 448.493 94.95 448.493 94.45 448.493C92.75 448.493 91.15 448.393 89.45 448.393C88.75 448.393 88.05 448.293 87.35 448.293C85.85 448.193 84.35 448.093 82.85 447.893C82.25 447.793 81.55 447.793 80.95 447.693C79.05 447.493 77.05 447.193 75.15 446.893C75.05 446.893 74.85 446.893 74.75 446.793C72.75 446.493 70.75 445.993 68.75 445.593C68.15 445.493 67.55 445.293 66.95 445.193C65.55 444.793 64.15 444.493 62.75 444.093C62.15 443.893 61.45 443.693 60.85 443.493C59.05 442.893 57.35 442.393 55.65 441.693C55.55 441.693 55.55 441.693 55.45 441.593C53.65 440.893 51.95 440.193 50.25 439.393C49.85 439.193 49.45 438.993 49.05 438.793C47.35 437.993 45.75 437.093 44.15 436.193C42.95 435.493 41.75 434.793 40.65 433.993C40.35 433.793 39.95 433.493 39.65 433.293C39.35 433.093 39.05 432.893 38.65 432.593C38.25 432.293 37.85 431.993 37.35 431.693C37.05 431.493 36.75 431.193 36.45 430.993C36.05 430.693 35.65 430.293 35.25 429.993C34.95 429.793 34.75 429.593 34.45 429.293C34.05 428.893 33.65 428.593 33.25 428.193C33.05 427.993 32.75 427.793 32.55 427.593C32.15 427.193 31.75 426.793 31.35 426.293C31.25 426.093 31.05 425.993 30.95 425.793C30.45 425.193 29.95 424.593 29.45 423.993C29.35 423.893 29.25 423.693 29.15 423.593C28.75 423.093 28.45 422.693 28.15 422.193C27.95 421.993 27.85 421.793 27.65 421.493C27.35 421.093 27.15 420.693 26.85 420.293C26.65 420.093 26.55 419.793 26.45 419.493C26.25 419.093 26.05 418.793 25.85 418.393C25.75 418.093 25.55 417.893 25.45 417.593C25.25 417.193 25.15 416.893 24.95 416.493C24.85 416.193 24.75 415.993 24.65 415.693C24.55 415.293 24.35 414.993 24.25 414.593C24.15 414.293 24.05 414.093 23.95 413.793C23.85 413.393 23.75 413.093 23.65 412.693C23.55 412.393 23.55 412.193 23.45 411.893C23.35 411.493 23.25 411.093 23.25 410.693C23.25 410.393 23.15 410.193 23.15 409.893C23.05 409.493 23.05 408.993 22.95 408.593C22.95 408.393 22.85 408.193 22.85 407.993C22.85 407.393 22.75 406.693 22.75 406.093V420.793C22.75 421.393 22.75 422.093 22.85 422.693C22.85 422.893 22.85 423.093 22.95 423.293C22.95 423.693 23.05 424.193 23.15 424.593C23.15 424.893 23.25 425.093 23.25 425.393C23.35 425.793 23.35 426.193 23.45 426.593C23.55 426.893 23.55 427.093 23.65 427.393C23.75 427.793 23.85 428.093 23.95 428.493C24.05 428.793 24.15 428.993 24.25 429.293C24.35 429.693 24.55 429.993 24.65 430.393C24.75 430.693 24.85 430.893 24.95 431.193C25.15 431.593 25.25 431.893 25.45 432.293C25.55 432.593 25.75 432.793 25.85 433.093C26.05 433.493 26.25 433.793 26.45 434.193C26.55 434.393 26.75 434.693 26.85 434.893C27.05 435.293 27.35 435.693 27.65 436.093C27.85 436.293 27.95 436.493 28.15 436.793C28.45 437.293 28.85 437.693 29.15 438.193C29.25 438.293 29.35 438.493 29.45 438.593C29.95 439.193 30.45 439.793 30.95 440.393C31.05 440.593 31.25 440.693 31.35 440.893C31.75 441.293 32.15 441.793 32.55 442.193C32.75 442.393 32.95 442.593 33.25 442.793C33.65 443.193 34.05 443.493 34.45 443.893C34.75 444.093 34.95 444.393 35.25 444.593C35.65 444.893 36.05 445.293 36.45 445.593C36.75 445.793 37.05 446.093 37.35 446.293C37.75 446.593 38.15 446.893 38.65 447.193C38.95 447.393 39.25 447.693 39.65 447.893C39.85 447.993 40.05 448.193 40.25 448.293C40.35 448.393 40.55 448.493 40.65 448.593C41.75 449.293 42.95 450.093 44.15 450.793C45.75 451.693 47.35 452.593 49.05 453.393C49.45 453.593 49.85 453.793 50.25 453.993C51.95 454.793 53.65 455.493 55.45 456.193C55.55 456.193 55.55 456.193 55.65 456.293C56.95 456.793 58.15 457.193 59.45 457.693C59.85 457.793 60.35 457.993 60.85 458.093C61.45 458.293 62.15 458.493 62.75 458.693C64.15 459.093 65.55 459.493 66.95 459.793C67.55 459.893 68.15 460.093 68.75 460.193C70.75 460.693 72.75 461.093 74.75 461.393C74.85 461.393 75.05 461.393 75.15 461.493C77.05 461.793 78.95 462.093 80.95 462.293C81.55 462.393 82.25 462.393 82.85 462.493C84.35 462.593 85.85 462.793 87.35 462.893C88.05 462.893 88.75 462.993 89.45 462.993C91.15 463.093 92.75 463.093 94.45 463.093C94.95 463.093 95.35 463.093 95.85 463.093C97.95 463.093 100.05 462.993 102.15 462.893C102.65 462.893 103.25 462.793 103.75 462.793C105.35 462.693 106.95 462.593 108.45 462.393C109.15 462.293 109.85 462.193 110.55 462.193C112.05 461.993 113.55 461.793 114.95 461.593C115.55 461.493 116.15 461.393 116.75 461.293C118.75 460.893 120.75 460.493 122.75 460.093C122.85 460.093 122.95 459.993 123.15 459.993C125.05 459.593 126.85 459.093 128.65 458.493C129.25 458.293 129.85 458.093 130.45 457.893C131.75 457.493 133.15 456.993 134.45 456.493C135.05 456.293 135.65 456.093 136.25 455.793C137.65 455.193 139.05 454.593 140.45 453.993C140.85 453.793 141.25 453.693 141.65 453.493C141.75 453.493 141.85 453.393 141.95 453.393C143.65 452.593 145.35 451.693 146.95 450.793C147.95 450.193 148.95 449.593 149.85 448.993C150.15 448.793 150.45 448.593 150.75 448.393C151.35 447.993 152.05 447.493 152.65 447.093C152.95 446.893 153.25 446.693 153.55 446.393C154.15 445.893 154.75 445.493 155.35 444.993C155.55 444.793 155.85 444.593 156.05 444.393C156.85 443.693 157.55 443.093 158.25 442.393C158.25 442.393 158.25 442.393 158.35 442.393C158.45 442.293 158.45 442.293 158.55 442.193C159.15 441.593 159.85 440.893 160.35 440.193C160.55 439.793 160.75 439.593 160.95 439.393Z" fill="#1C1F23"/>
<path d="M146.5 376.9C174.9 393.3 175.1 419.9 146.8 436.3C118.6 452.7 72.6 452.7 44.2 436.3C15.8 419.9 15.6 393.3 43.9 376.9C72.2 360.4 118.1 360.4 146.5 376.9Z" fill="#2A2D35"/>
<path d="M95.6 442.1C80.5 442.1 65.3 438.8 53.8 432.1C42.2 425.4 35.7 416.3 35.7 406.5C35.7 396.8 42 387.8 53.5 381.1C76.5 367.8 113.9 367.8 137 381.1C148.7 387.8 155.1 396.9 155.1 406.7C155.1 416.4 148.8 425.4 137.3 432.1C125.8 438.7 110.7 442.1 95.6 442.1ZM95.2 375.5C80.9 375.5 66.6 378.7 55.8 385C45.7 390.8 40.2 398.5 40.2 406.5C40.2 414.6 45.8 422.3 56 428.2C77.8 440.8 113.3 440.8 135 428.2C145.1 422.4 150.6 414.7 150.6 406.7C150.6 398.6 145 390.9 134.8 385C123.9 378.7 109.5 375.5 95.2 375.5Z" fill="#1C1F23"/>
<path d="M138.2 422.7C138.7 422.1 139.2 421.5 139.6 420.9C139.7 420.7 139.9 420.5 140 420.4C140.5 419.6 141 418.9 141.5 418.1C141.6 417.9 141.7 417.8 141.8 417.6C142.2 417 142.5 416.3 142.8 415.7C142.9 415.5 143 415.2 143.1 415C143.4 414.3 143.7 413.7 143.9 413C143.9 412.9 144 412.7 144 412.6C144.3 411.8 144.5 411 144.7 410.2C144.8 410 144.8 409.8 144.8 409.6C144.9 409 145 408.4 145.1 407.7C145.1 407.5 145.2 407.2 145.2 407C145.3 406.2 145.3 405.4 145.3 404.5V389.8C145.3 390.6 145.2 391.4 145.2 392.3C145.2 392.5 145.1 392.8 145.1 393C145 393.6 144.9 394.3 144.8 394.9C144.8 395.1 144.7 395.3 144.7 395.5C144.5 396.3 144.3 397.1 144 397.9C144 398 143.9 398.2 143.8 398.3C143.6 399 143.3 399.7 143 400.3C142.9 400.5 142.8 400.8 142.7 401C142.4 401.6 142.1 402.3 141.7 402.9C141.6 403.1 141.5 403.2 141.4 403.4C140.9 404.2 140.4 404.9 139.9 405.7C139.8 405.9 139.6 406.1 139.5 406.2C139.1 406.8 138.6 407.4 138.1 408C137.9 408.2 137.7 408.4 137.5 408.7C136.9 409.4 136.3 410 135.7 410.7C135.6 410.8 135.5 410.9 135.5 411C134.8 411.7 134.1 412.4 133.3 413C133.1 413.2 132.8 413.4 132.6 413.6C132 414.1 131.4 414.6 130.8 415C130.5 415.2 130.2 415.4 129.9 415.7C129.3 416.1 128.7 416.6 128 417C127.7 417.2 127.4 417.4 127.1 417.6C126.2 418.2 125.2 418.8 124.2 419.4C122.5 420.4 120.7 421.3 118.9 422.2C118.5 422.4 118.1 422.5 117.7 422.7C116.3 423.3 114.9 423.9 113.5 424.5C112.9 424.7 112.3 425 111.7 425.2C110.4 425.7 109.1 426.1 107.7 426.6C107.1 426.8 106.5 427 105.9 427.2C104.1 427.7 102.3 428.2 100.4 428.7C100.3 428.7 100.2 428.8 99.9997 428.8C97.9997 429.3 95.9997 429.7 93.9997 430C93.3997 430.1 92.7997 430.2 92.1997 430.3C90.6997 430.5 89.2997 430.7 87.7997 430.9C87.0997 431 86.3997 431.1 85.6997 431.1C84.0997 431.3 82.5997 431.4 80.9997 431.5C80.4997 431.5 79.8997 431.6 79.3997 431.6C77.2997 431.7 75.1997 431.8 73.0997 431.8C72.5997 431.8 72.1997 431.8 71.6997 431.8C69.9997 431.8 68.3997 431.7 66.6997 431.7C65.9997 431.7 65.2997 431.6 64.5997 431.6C63.0997 431.5 61.5997 431.4 60.0997 431.2C59.4997 431.1 58.7997 431.1 58.1997 431C56.2997 430.8 54.2997 430.5 52.3997 430.2C52.2997 430.2 52.0997 430.2 51.9997 430.1C49.9997 429.7 47.9997 429.3 45.9997 428.9C45.3997 428.8 44.7997 428.6 44.1997 428.5C42.7997 428.1 41.3997 427.8 39.9997 427.4C39.3997 427.2 38.6997 427 38.0997 426.8C36.2997 426.2 34.5997 425.7 32.8997 425C32.7997 425 32.7997 425 32.6997 424.9C30.8997 424.2 29.1997 423.5 27.4997 422.7C27.0997 422.5 26.6997 422.3 26.2997 422.1C24.5997 421.3 22.9997 420.4 21.3997 419.5C20.1997 418.8 18.9997 418.1 17.8997 417.3C17.5997 417.1 17.1997 416.8 16.8997 416.6C16.5997 416.4 16.2997 416.2 15.8997 415.9C15.4997 415.6 15.0997 415.3 14.5997 415C14.2997 414.8 13.9997 414.5 13.6997 414.3C13.2997 414 12.8997 413.6 12.4997 413.3C12.1997 413.1 11.9997 412.8 11.6997 412.6C11.2997 412.2 10.8997 411.9 10.4997 411.5C10.2997 411.3 9.99966 411.1 9.79966 410.9C9.39966 410.5 8.99966 410.1 8.59966 409.6C8.49966 409.4 8.29966 409.3 8.09966 409.1C7.59966 408.5 7.09966 407.9 6.59966 407.3C6.49966 407.2 6.39966 407 6.29966 406.9C5.89966 406.4 5.59966 406 5.19966 405.5C4.99966 405.3 4.89966 405.1 4.79966 404.8C4.49966 404.4 4.29966 404 3.99966 403.6C3.79966 403.4 3.69966 403.1 3.59966 402.8C3.39966 402.4 3.19966 402.1 2.99966 401.7C2.89966 401.4 2.69966 401.2 2.59966 400.9C2.39966 400.5 2.29966 400.2 2.09966 399.8C1.99966 399.5 1.89966 399.3 1.79966 399C1.69966 398.6 1.49966 398.3 1.39966 397.9C1.29966 397.6 1.19966 397.4 1.09966 397.1C0.999658 396.7 0.899658 396.4 0.799658 396C0.699658 395.7 0.699658 395.5 0.599658 395.2C0.499658 394.8 0.399658 394.4 0.399658 394C0.399658 393.7 0.299658 393.5 0.299658 393.2C0.199658 392.8 0.199658 392.3 0.0996582 391.9C0.0996582 391.7 -0.000341803 391.5 -0.000341803 391.3C-0.000341803 390.7 -0.100342 390 -0.100342 389.4L0.299658 404C0.299658 404.6 0.299658 405.3 0.399658 405.9C0.399658 406.1 0.399658 406.3 0.499658 406.5C0.499658 406.9 0.599658 407.4 0.699658 407.8C0.699658 408.1 0.799658 408.3 0.799658 408.6C0.899658 409 0.899658 409.4 0.999658 409.8C1.09966 410.1 1.09966 410.3 1.19966 410.6C1.29966 411 1.39966 411.4 1.49966 411.7C1.59966 412 1.69966 412.2 1.79966 412.5C1.89966 412.9 2.09966 413.2 2.19966 413.6C2.29966 413.9 2.39966 414.1 2.49966 414.4C2.69966 414.8 2.79966 415.1 2.99966 415.5C3.09966 415.8 3.29966 416 3.39966 416.3C3.59966 416.7 3.79966 417 3.99966 417.4C4.09966 417.7 4.29966 417.9 4.39966 418.2C4.59966 418.6 4.89966 419 5.19966 419.4C5.29966 419.6 5.49966 419.8 5.59966 420.1C5.89966 420.6 6.29966 421 6.69966 421.5C6.79966 421.6 6.89966 421.8 6.99966 421.9C7.49966 422.5 7.99966 423.1 8.49966 423.7C8.59966 423.9 8.79966 424 8.89966 424.2C9.29966 424.6 9.69966 425.1 10.0997 425.5C10.2997 425.7 10.5997 425.9 10.7997 426.1C11.1997 426.5 11.5997 426.8 11.9997 427.2C12.2997 427.4 12.4997 427.7 12.7997 427.9C13.1997 428.2 13.5997 428.6 13.9997 428.9C14.2997 429.1 14.5997 429.4 14.8997 429.6C15.2997 429.9 15.6997 430.2 16.1997 430.5C16.4997 430.7 16.7997 431 17.1997 431.2C17.3997 431.3 17.5997 431.5 17.7997 431.6C17.8997 431.7 18.0997 431.8 18.1997 431.9C19.2997 432.6 20.4997 433.4 21.6997 434.1C23.2997 435 24.8997 435.9 26.5997 436.7C26.9997 436.9 27.3997 437.1 27.7997 437.3C29.4997 438.1 31.1997 438.8 32.9997 439.5C33.0997 439.5 33.0997 439.5 33.1997 439.6C34.4997 440.1 35.7997 440.5 37.0997 441C37.4997 441.1 37.9997 441.3 38.3997 441.4C38.9997 441.6 39.6997 441.8 40.2997 442C41.6997 442.4 43.0997 442.8 44.4997 443.1C45.0997 443.2 45.6997 443.4 46.2997 443.5C48.2997 444 50.2997 444.4 52.2997 444.7C52.3997 444.7 52.5997 444.7 52.6997 444.8C54.5997 445.1 56.4997 445.4 58.4997 445.6C59.0997 445.7 59.7997 445.7 60.3997 445.8C61.8997 445.9 63.3997 446.1 64.8997 446.2C65.5997 446.2 66.2997 446.3 66.9997 446.3C68.6997 446.4 70.2997 446.4 71.9997 446.4C72.4997 446.4 72.8997 446.4 73.3997 446.4C75.4997 446.4 77.5997 446.3 79.6997 446.2C80.1997 446.2 80.7997 446.1 81.2997 446.1C82.8997 446 84.4997 445.9 85.9997 445.7C86.6997 445.6 87.3997 445.5 88.0997 445.5C89.5997 445.3 91.0997 445.1 92.4997 444.9C93.0997 444.8 93.6997 444.7 94.2997 444.6C96.2997 444.2 98.2997 443.8 100.3 443.4C100.4 443.4 100.5 443.3 100.7 443.3C102.5 442.9 104.4 442.4 106.2 441.8C106.8 441.6 107.4 441.4 108 441.2C109.3 440.8 110.7 440.3 112 439.8C112.6 439.6 113.2 439.4 113.8 439.1C115.2 438.5 116.6 437.9 118 437.3C118.4 437.1 118.8 437 119.2 436.8C119.3 436.8 119.4 436.7 119.5 436.7C121.2 435.9 122.9 435 124.5 434.1C125.5 433.5 126.5 432.9 127.4 432.3C127.7 432.1 128 431.9 128.3 431.7C128.9 431.3 129.6 430.8 130.2 430.4C130.5 430.2 130.8 430 131.1 429.7C131.7 429.2 132.3 428.8 132.9 428.3C133.1 428.1 133.4 427.9 133.6 427.7C134.4 427 135.1 426.4 135.8 425.7C135.8 425.7 135.8 425.7 135.9 425.7C136 425.6 136 425.6 136.1 425.5C136.7 424.9 137.4 424.2 137.9 423.5C137.8 423.1 138 422.9 138.2 422.7Z" fill="#1C1F23"/>
<path d="M123.713 360.338C152.113 376.738 152.313 403.338 124.013 419.738C95.7129 436.138 49.8129 436.138 21.4129 419.738C-6.98709 403.338 -7.18709 376.738 21.1129 360.338C49.3129 343.938 95.2129 343.838 123.713 360.338Z" fill="#2A2D35"/>
<path d="M142.7 380.4V378.3C142.7 378.6 142.7 379 142.6 379.3C142 368.7 135.2 358.2 122 350.1C94.5 333.3 50.2 333.3 22.9 350.1C9.90001 358.1 3.10001 368.6 2.60001 379.1C2.60001 378.7 2.60001 378.3 2.60001 377.9V387.8C2.60001 388.4 2.60001 389 2.70001 389.7C2.70001 389.9 2.70001 390.1 2.80001 390.3C2.80001 390.7 2.90001 391.1 3.00001 391.6C3.00001 391.8 3.10001 392.1 3.10001 392.3C3.20001 392.7 3.20001 393.1 3.30001 393.4C3.40001 393.7 3.40001 393.9 3.50001 394.2C3.60001 394.6 3.70001 394.9 3.80001 395.3C3.90001 395.6 4.00001 395.8 4.10001 396.1C4.20001 396.5 4.40001 396.8 4.50001 397.2C4.60001 397.5 4.70001 397.7 4.80001 398C5.00001 398.4 5.10001 398.7 5.30001 399.1C5.40001 399.4 5.50001 399.6 5.70001 399.9C5.90001 400.3 6.10001 400.6 6.30001 401C6.40001 401.2 6.60001 401.5 6.70001 401.7C6.90001 402.1 7.20001 402.5 7.40001 402.8C7.50001 403 7.70001 403.2 7.80001 403.4C8.10001 403.9 8.50001 404.3 8.80001 404.8C8.90001 404.9 9.00001 405.1 9.10001 405.2C9.60001 405.8 10.1 406.4 10.6 406.9C10.7 407 10.9 407.2 11 407.3C11.4 407.7 11.8 408.1 12.2 408.5C12.4 408.7 12.6 408.9 12.9 409.1C13.3 409.4 13.6 409.8 14 410.1C14.3 410.3 14.5 410.5 14.8 410.8C15.2 411.1 15.6 411.4 15.9 411.8C16.2 412 16.5 412.2 16.8 412.5C17.2 412.8 17.6 413.1 18 413.4C18.3 413.6 18.6 413.8 18.9 414.1C19.1 414.2 19.3 414.4 19.5 414.5C19.6 414.6 19.8 414.7 19.9 414.8C21 415.5 22.1 416.2 23.3 416.9C24.8 417.8 26.4 418.6 28.1 419.4C28.5 419.6 28.9 419.8 29.3 420C30.9 420.8 32.6 421.5 34.3 422.1C34.4 422.1 34.4 422.1 34.5 422.2C35.7 422.7 37 423.1 38.2 423.5C38.6 423.6 39.1 423.8 39.5 423.9C40.1 424.1 40.7 424.3 41.3 424.5C42.6 424.9 44 425.3 45.4 425.6C46 425.7 46.5 425.9 47.1 426C49 426.4 51 426.8 52.9 427.2C53 427.2 53.1 427.2 53.3 427.3C55.2 427.6 57 427.9 58.9 428.1C59.5 428.2 60.1 428.2 60.8 428.3C62.2 428.4 63.7 428.6 65.1 428.7C65.8 428.7 66.4 428.8 67.1 428.8C68.7 428.9 70.3 428.9 71.9 428.9C72.3 428.9 72.8 428.9 73.2 428.9C75.2 428.9 77.3 428.8 79.3 428.7C79.8 428.7 80.3 428.6 80.8 428.6C82.3 428.5 83.9 428.4 85.4 428.2C86.1 428.1 86.7 428.1 87.4 428C88.8 427.8 90.3 427.6 91.7 427.4C92.3 427.3 92.9 427.2 93.5 427.1C95.5 426.8 97.4 426.4 99.3 425.9C99.4 425.9 99.5 425.8 99.6 425.8C101.4 425.4 103.2 424.9 104.9 424.4C105.5 424.2 106 424 106.6 423.9C107.9 423.5 109.2 423 110.4 422.6C111 422.4 111.6 422.2 112.1 421.9C113.5 421.4 114.8 420.8 116.1 420.2C116.5 420 116.8 419.9 117.2 419.7C117.3 419.7 117.4 419.6 117.5 419.6C119.1 418.8 120.7 418 122.3 417.1C123.3 416.5 124.2 415.9 125.1 415.4C125.4 415.2 125.6 415 125.9 414.8C126.5 414.4 127.1 414 127.7 413.5C128 413.3 128.3 413.1 128.5 412.9C129.1 412.4 129.7 412 130.2 411.5C130.4 411.3 130.6 411.1 130.9 411C131.6 410.4 132.3 409.7 133 409.1C133.1 409 133.1 409 133.2 408.9C133.8 408.3 134.4 407.6 135 407C135.2 406.8 135.4 406.6 135.5 406.4C136 405.8 136.4 405.3 136.9 404.7C137 404.5 137.2 404.3 137.3 404.2C137.8 403.5 138.3 402.7 138.8 402C138.9 401.8 139 401.7 139.1 401.5C139.4 400.9 139.8 400.3 140.1 399.7C140.2 399.5 140.3 399.2 140.4 399C140.7 398.3 141 397.7 141.2 397C141.2 396.9 141.3 396.7 141.3 396.6C141.6 395.8 141.8 395 142 394.3C142 394.1 142.1 393.9 142.1 393.7C142.2 393.1 142.3 392.5 142.4 391.9C142.4 391.7 142.5 391.4 142.5 391.2C142.6 390.4 142.6 389.6 142.6 388.8V381.4C142.7 380.6 142.7 380.5 142.7 380.4Z" fill="#FFDE1D"/>
<path d="M137.9 392.4C138.4 391.8 138.9 391.2 139.3 390.6C139.4 390.4 139.6 390.2 139.7 390.1C140.2 389.3 140.7 388.6 141.2 387.8C141.3 387.6 141.4 387.5 141.5 387.3C141.9 386.7 142.2 386 142.5 385.4C142.6 385.2 142.7 384.9 142.8 384.7C143.1 384 143.4 383.4 143.6 382.7C143.6 382.6 143.7 382.4 143.8 382.3C144.1 381.5 144.3 380.7 144.5 379.9C144.6 379.7 144.6 379.5 144.6 379.3C144.7 378.7 144.8 378.1 144.9 377.4C144.9 377.2 145 376.9 145 376.7C145.1 375.9 145.1 375.1 145.1 374.2V359.5C145.1 360.3 145 361.1 145 362C145 362.2 144.9 362.5 144.9 362.7C144.8 363.3 144.7 364 144.6 364.6C144.6 364.8 144.5 365 144.5 365.2C144.3 366 144.1 366.8 143.8 367.6C143.8 367.7 143.7 367.9 143.6 368C143.4 368.7 143.1 369.4 142.8 370C142.7 370.2 142.6 370.5 142.5 370.7C142.2 371.3 141.9 372 141.5 372.6C141.4 372.8 141.3 372.9 141.2 373.1C140.7 373.9 140.2 374.6 139.7 375.4C139.6 375.6 139.4 375.8 139.3 375.9C138.9 376.5 138.4 377.1 137.9 377.7C137.7 377.9 137.5 378.1 137.3 378.4C136.7 379.1 136.1 379.7 135.5 380.4C135.4 380.5 135.3 380.6 135.2 380.7C134.5 381.4 133.8 382.1 133 382.7C132.8 382.9 132.6 383.1 132.3 383.3C131.7 383.8 131.1 384.3 130.5 384.7C130.2 384.9 129.9 385.1 129.6 385.4C129 385.8 128.4 386.3 127.7 386.7C127.4 386.9 127.1 387.1 126.8 387.3C125.9 387.9 124.9 388.5 123.9 389.1C122.2 390.1 120.4 391 118.6 391.9C118.2 392.1 117.8 392.2 117.4 392.4C116 393 114.6 393.6 113.2 394.2C112.6 394.4 112 394.7 111.4 394.9C110.1 395.4 108.8 395.8 107.4 396.3C106.8 396.5 106.2 396.7 105.6 396.9C103.8 397.4 102 397.9 100.1 398.4C100 398.4 99.9 398.5 99.7 398.5C97.7 399 95.7 399.4 93.7 399.7C93.1 399.8 92.5 399.9 91.9 400C90.4 400.2 89 400.4 87.5 400.6C86.8 400.7 86.1 400.8 85.4 400.8C83.8 401 82.3 401.1 80.7 401.2C80.2 401.2 79.6 401.3 79.1 401.3C77 401.4 74.9 401.5 72.8 401.5C72.3 401.5 71.9 401.5 71.4 401.5C69.7 401.5 68.1 401.4 66.4 401.4C65.7 401.4 65 401.3 64.3 401.3C62.8 401.2 61.3 401.1 59.8 400.9C59.2 400.8 58.5 400.8 57.9 400.7C56 400.5 54 400.2 52.1 399.9C52 399.9 51.8 399.9 51.7 399.8C49.7 399.5 47.7 399 45.7 398.6C45.1 398.5 44.5 398.3 43.9 398.2C42.5 397.8 41.1 397.5 39.7 397.1C39.1 396.9 38.4 396.7 37.8 396.5C36 395.9 34.3 395.4 32.6 394.7C32.5 394.7 32.5 394.7 32.4 394.6C30.6 393.9 28.9 393.2 27.2 392.4C26.8 392.2 26.4 392 26 391.8C24.3 391 22.7 390.1 21.1 389.2C19.9 388.5 18.7 387.8 17.6 387C17.3 386.8 16.9 386.5 16.6 386.3C16.3 386.1 16 385.9 15.6 385.6C15.2 385.3 14.8 385 14.3 384.7C14 384.5 13.7 384.2 13.4 384C13 383.7 12.6 383.3 12.2 383C11.9 382.8 11.7 382.6 11.4 382.3C11 381.9 10.6 381.6 10.2 381.2C10 381 9.70001 380.8 9.50001 380.6C9.10001 380.2 8.70001 379.8 8.30001 379.3C8.20001 379.1 8.00001 379 7.90001 378.8C7.40001 378.2 6.90001 377.6 6.40001 377C6.30001 376.9 6.20001 376.7 6.10001 376.6C5.70001 376.1 5.40001 375.7 5.10001 375.2C4.90001 375 4.80001 374.8 4.60001 374.5C4.30001 374.1 4.10001 373.7 3.80001 373.3C3.60001 373.1 3.50001 372.8 3.40001 372.6C3.20001 372.2 3.00001 371.9 2.80001 371.5C2.70001 371.2 2.50001 371 2.40001 370.7C2.20001 370.3 2.10001 370 1.90001 369.6C1.80001 369.3 1.70001 369.1 1.60001 368.8C1.50001 368.4 1.30001 368.1 1.20001 367.7C1.10001 367.4 1.00001 367.2 0.900012 366.9C0.800012 366.5 0.700012 366.2 0.600012 365.8C0.500012 365.5 0.500012 365.3 0.400012 365C0.300012 364.6 0.200012 364.2 0.200012 363.8C0.200012 363.5 0.100012 363.3 0.100012 363C1.22115e-05 362.6 1.22264e-05 362.1 -0.0999878 361.7C-0.0999878 361.5 -0.199988 361.3 -0.199988 361.1C-0.199988 360.5 -0.299988 359.8 -0.299988 359.2V373.9C-0.299988 374.5 -0.299988 375.2 -0.199988 375.8C-0.199988 376 -0.199988 376.2 -0.0999878 376.4C-0.0999878 376.8 1.22115e-05 377.3 0.100012 377.7C0.100012 378 0.200012 378.2 0.200012 378.5C0.300012 378.9 0.300012 379.3 0.400012 379.7C0.500012 380 0.500012 380.2 0.600012 380.5C0.700012 380.9 0.800012 381.2 0.900012 381.6C1.00001 381.9 1.10001 382.1 1.20001 382.4C1.30001 382.8 1.50001 383.1 1.60001 383.5C1.70001 383.8 1.80001 384 1.90001 384.3C2.10001 384.7 2.20001 385 2.40001 385.4C2.50001 385.7 2.70001 385.9 2.80001 386.2C3.00001 386.6 3.20001 386.9 3.40001 387.3C3.50001 387.5 3.70001 387.8 3.80001 388C4.00001 388.4 4.30001 388.8 4.60001 389.2C4.80001 389.4 4.90001 389.6 5.10001 389.9C5.40001 390.4 5.80001 390.8 6.10001 391.3C6.20001 391.4 6.30001 391.6 6.40001 391.7C6.90001 392.3 7.40001 392.9 7.90001 393.5C8.00001 393.7 8.20001 393.8 8.30001 394C8.70001 394.4 9.10001 394.9 9.50001 395.3C9.70001 395.5 9.90001 395.7 10.2 395.9C10.6 396.3 11 396.6 11.4 397C11.7 397.2 11.9 397.5 12.2 397.7C12.6 398 13 398.4 13.4 398.7C13.7 398.9 14 399.2 14.3 399.4C14.7 399.7 15.1 400 15.6 400.3C15.9 400.5 16.2 400.8 16.6 401C16.8 401.1 17 401.3 17.2 401.4C17.3 401.5 17.5 401.6 17.6 401.7C18.7 402.4 19.9 403.2 21.1 403.9C22.7 404.8 24.3 405.7 26 406.5C26.4 406.7 26.8 406.9 27.2 407.1C28.9 407.9 30.6 408.6 32.4 409.3C32.5 409.3 32.5 409.3 32.6 409.4C33.9 409.9 35.1 410.3 36.4 410.8C36.8 410.9 37.3 411.1 37.8 411.2C38.4 411.4 39.1 411.6 39.7 411.8C41.1 412.2 42.5 412.6 43.9 412.9C44.5 413 45.1 413.2 45.7 413.3C47.7 413.8 49.7 414.2 51.7 414.5C51.8 414.5 52 414.5 52.1 414.6C54 414.9 55.9 415.2 57.9 415.4C58.5 415.5 59.2 415.5 59.8 415.6C61.3 415.7 62.8 415.9 64.3 416C65 416 65.7 416.1 66.4 416.1C68.1 416.2 69.7 416.2 71.4 416.2C71.9 416.2 72.3 416.2 72.8 416.2C74.9 416.2 77 416.1 79.1 416C79.6 416 80.2 415.9 80.7 415.9C82.3 415.8 83.9 415.7 85.4 415.5C86.1 415.4 86.8 415.3 87.5 415.3C89 415.1 90.5 414.9 91.9 414.7C92.5 414.6 93.1 414.5 93.7 414.4C95.7 414 97.7 413.6 99.7 413.2C99.8 413.2 99.9 413.1 100.1 413.1C102 412.7 103.8 412.2 105.6 411.6C106.2 411.4 106.8 411.2 107.4 411C108.7 410.6 110.1 410.1 111.4 409.6C112 409.4 112.6 409.2 113.2 408.9C114.6 408.3 116 407.7 117.4 407.1C117.8 406.9 118.2 406.8 118.6 406.6C118.7 406.6 118.8 406.5 118.9 406.5C120.6 405.7 122.3 404.8 123.9 403.9C124.9 403.3 125.9 402.7 126.8 402.1C127.1 401.9 127.4 401.7 127.7 401.5C128.3 401.1 129 400.6 129.6 400.2C129.9 400 130.2 399.8 130.5 399.5C131.1 399 131.7 398.6 132.3 398.1C132.5 397.9 132.8 397.7 133 397.5C133.8 396.8 134.5 396.2 135.2 395.5C135.2 395.5 135.2 395.5 135.3 395.5C135.4 395.4 135.4 395.4 135.5 395.3C136.1 394.7 136.8 394 137.3 393.3C137.5 392.8 137.7 392.6 137.9 392.4Z" fill="#1C1F23"/>
<path d="M123.713 330.3C152.113 346.7 152.313 373.3 124.013 389.7C95.8129 406.1 49.8129 406.1 21.4129 389.7C-6.98709 373.3 -7.18709 346.7 21.1129 330.3C49.3129 313.9 95.2129 313.9 123.713 330.3Z" fill="#2A2D35"/>
<path d="M72.8 394.7C57.7 394.7 42.5 391.4 31 384.7C19.4 378 12.9 368.9 12.9 359.1C12.9 349.4 19.2 340.4 30.7 333.7C53.7 320.4 91.1 320.4 114.2 333.7C125.9 340.4 132.3 349.5 132.3 359.3C132.3 369 126 378 114.5 384.7C103 391.4 87.9 394.7 72.8 394.7ZM72.4 328.2C58.1 328.2 43.8 331.4 33 337.7C22.9 343.5 17.4 351.2 17.4 359.2C17.4 367.3 23 375 33.2 380.9C55 393.5 90.5 393.5 112.2 380.9C122.3 375.1 127.8 367.4 127.8 359.4C127.8 351.3 122.2 343.6 112 337.7C101 331.3 86.7 328.2 72.4 328.2Z" fill="#1C1F23"/>
<path d="M363.5 477C363.5 477 355.7 482.6 359.9 488.4C367.9 499.6 391 490.3 391 490.3L384.1 474.5L363.5 477Z" fill="#D6D8E5"/>
<path d="M407.2 461.4C414.7 466.2 412.6 478.1 401.1 485.5C389.6 493 371.3 493.3 365 487C357.8 479.8 361.2 473.6 372.7 466.1C384.2 458.7 399.6 456.6 407.2 461.4Z" fill="#231C19"/>
<path d="M399.4 480.5C387.9 487.2 372.4 489.1 364.9 484.8C364 484.3 363.3 483.7 362.7 483.1C361.5 481.8 360.9 480.4 360.9 478.8C360.7 474.4 364.7 469.2 372.2 464.8C383.1 458.5 397.4 456.4 405.3 459.8C405.8 460 406.3 460.3 406.7 460.5C407.6 461 408.4 461.7 409 462.3C413.3 467 409.5 474.6 399.4 480.5Z" fill="#3F312B"/>
<path d="M409 462.3C407.1 465.2 404.3 468.2 400.1 470.7C393.2 474.9 386 476.1 379.7 477.1C373.2 478.2 367.5 479.2 362.8 483C361.6 481.7 361 480.3 361 478.7C366.4 474.8 372.5 473.8 379 472.7C385.2 471.7 391.6 470.6 397.8 466.8C401.4 464.6 403.8 462.1 405.3 459.7C405.8 459.9 406.3 460.2 406.7 460.4C407.7 461 408.4 461.6 409 462.3Z" fill="#231C19"/>
<path d="M362.7 483C362.8 483 362.9 482.9 362.9 482.8C362.9 482.9 362.8 483 362.7 483Z" fill="#211109"/>
<path d="M406.6 460.4C405 462.8 402.7 465.1 399.2 467.2C393 471 383.4 472.8 377.1 473.9C371.3 474.9 365.8 475.8 360.8 478.8V478.7C366.2 474.8 372.3 473.8 378.8 472.7C385 471.7 391.4 470.6 397.6 466.8C401.2 464.6 403.6 462.1 405.1 459.7C405.8 459.9 406.2 460.2 406.6 460.4Z" fill="#191412"/>
<path d="M452 446C452 446 444.2 451.6 448.4 457.4C456.4 468.6 479.5 459.3 479.5 459.3L472.6 443.5L452 446Z" fill="#D6D8E5"/>
<path d="M495.6 430.4C503.1 435.2 501 447.1 489.5 454.5C478 462 459.7 462.3 453.4 456C446.2 448.8 449.6 442.6 461.1 435.1C472.6 427.7 488.1 425.5 495.6 430.4Z" fill="#231C19"/>
<path d="M487.9 449.4C476.4 456.1 460.9 458 453.4 453.7C452.5 453.2 451.8 452.6 451.2 452C450 450.7 449.4 449.3 449.4 447.7C449.2 443.3 453.2 438.1 460.7 433.7C471.6 427.4 485.9 425.3 493.8 428.7C494.3 428.9 494.8 429.2 495.2 429.4C496.1 429.9 496.9 430.6 497.5 431.2C501.7 436 498 443.5 487.9 449.4Z" fill="#3F312B"/>
<path d="M497.5 431.2C495.6 434.1 492.8 437.1 488.6 439.6C481.7 443.8 474.5 445 468.2 446C461.7 447.1 456 448.1 451.3 451.9C450.1 450.6 449.5 449.2 449.5 447.6C454.9 443.7 461 442.7 467.5 441.6C473.7 440.6 480.1 439.5 486.3 435.7C489.9 433.5 492.3 431 493.8 428.6C494.3 428.8 494.8 429.1 495.2 429.3C496.1 429.9 496.9 430.6 497.5 431.2Z" fill="#231C19"/>
<path d="M451.1 452C451.2 452 451.3 451.9 451.3 451.8C451.3 451.9 451.2 451.9 451.1 452Z" fill="#211109"/>
<path d="M495.1 429.4C493.5 431.8 491.2 434.1 487.7 436.2C481.5 440 471.9 441.8 465.6 442.9C459.8 443.9 454.3 444.8 449.3 447.8V447.7C454.7 443.8 460.8 442.8 467.3 441.7C473.5 440.7 479.9 439.6 486.1 435.8C489.7 433.6 492.1 431.1 493.6 428.7C494.2 428.9 494.6 429.1 495.1 429.4Z" fill="#191412"/>
<path d="M431.4 387.1C431.4 387.1 423.6 392.7 427.8 398.5C435.8 409.7 458.9 400.4 458.9 400.4L452 384.6L431.4 387.1Z" fill="#D6D8E5"/>
<path d="M475 371.5C482.5 376.3 480.4 388.2 468.9 395.6C457.4 403.1 439.1 403.4 432.8 397.1C425.6 389.9 429 383.7 440.5 376.2C452.1 368.8 467.5 366.7 475 371.5Z" fill="#231C19"/>
<path d="M467.3 390.5C455.8 397.2 440.3 399.1 432.8 394.8C431.9 394.3 431.2 393.7 430.6 393.1C429.4 391.8 428.8 390.4 428.8 388.8C428.6 384.4 432.6 379.2 440.1 374.8C451 368.5 465.3 366.4 473.2 369.8C473.7 370 474.2 370.3 474.6 370.5C475.5 371 476.3 371.7 476.9 372.3C481.2 377.1 477.4 384.7 467.3 390.5Z" fill="#3F312B"/>
<path d="M476.9 372.4C475 375.3 472.2 378.3 468 380.8C461.1 385 453.9 386.2 447.6 387.2C441.1 388.3 435.4 389.3 430.7 393.1C429.5 391.8 428.9 390.4 428.9 388.8C434.3 384.9 440.4 383.9 446.9 382.8C453.1 381.8 459.5 380.7 465.7 376.9C469.3 374.7 471.7 372.2 473.2 369.8C473.7 370 474.2 370.3 474.6 370.5C475.5 371.1 476.3 371.7 476.9 372.4Z" fill="#231C19"/>
<path d="M430.6 393.1C430.7 393.1 430.8 393 430.8 392.9C430.7 393 430.6 393.1 430.6 393.1Z" fill="#211109"/>
<path d="M474.5 370.5C472.9 372.9 470.6 375.2 467.1 377.3C460.9 381.1 451.3 382.9 445 384C439.2 385 433.7 385.9 428.7 388.9V388.8C434.1 384.9 440.2 383.9 446.7 382.8C452.9 381.8 459.3 380.7 465.5 376.9C469.1 374.7 471.5 372.2 473 369.8C473.6 370 474.1 370.3 474.5 370.5Z" fill="#191412"/>
<path d="M217.1 479.6C217.2 479.6 217.3 479.5 217.3 479.4C217.3 479.5 217.2 479.5 217.1 479.6Z" fill="#211109"/>
<path d="M336 306.1C292.1 325.6 230.8 325.6 186.9 306.2L188.4 335.8C188.5 335.9 188.7 335.9 188.8 336C190.8 336.9 192.9 337.7 195 338.4C195.1 338.4 195.1 338.5 195.2 338.5C195.6 338.6 196 338.8 196.4 338.9C197.6 339.3 198.9 339.8 200.2 340.2C200.8 340.4 201.5 340.6 202.1 340.8C203.2 341.1 204.4 341.5 205.6 341.8C206.3 342 206.9 342.2 207.6 342.4C208.8 342.7 210 343 211.2 343.3C211.8 343.5 212.5 343.6 213.1 343.8C214.5 344.1 216 344.5 217.4 344.8C217.8 344.9 218.2 345 218.6 345.1C220.5 345.5 222.4 345.8 224.2 346.2C224.7 346.3 225.2 346.4 225.7 346.4C227.1 346.6 228.5 346.9 229.9 347.1C230.6 347.2 231.3 347.3 232 347.4C233.3 347.6 234.5 347.7 235.8 347.9C236.5 348 237.2 348.1 238 348.1C239.3 348.2 240.5 348.4 241.8 348.5C242.5 348.6 243.2 348.6 243.9 348.7C245.4 348.8 246.8 348.9 248.3 349C248.8 349 249.3 349.1 249.8 349.1C251.7 349.2 253.7 349.3 255.7 349.3C256.1 349.3 256.5 349.3 256.8 349.3C257.4 349.3 258 349.3 258.5 349.3C259.4 349.3 260.4 349.3 261.3 349.3C261.6 349.3 261.9 349.3 262.1 349.3C262.5 349.3 262.9 349.3 263.4 349.3C263.7 349.3 263.9 349.3 264.2 349.3C265 349.3 265.7 349.3 266.5 349.2C266.8 349.2 267 349.2 267.3 349.2C267.5 349.2 267.6 349.2 267.8 349.2C268.4 349.2 268.9 349.2 269.5 349.1C270.3 349.1 271 349 271.8 349C272.1 349 272.3 349 272.6 349C272.9 349 273.1 349 273.4 349C273.9 349 274.5 348.9 275.1 348.9C275.2 348.9 275.4 348.9 275.5 348.9C275.9 348.9 276.2 348.9 276.6 348.8C277 348.8 277.3 348.7 277.7 348.7C278 348.7 278.4 348.6 278.8 348.6C279.1 348.6 279.5 348.5 279.9 348.5C280.2 348.5 280.4 348.5 280.7 348.4C281 348.4 281.2 348.4 281.5 348.3C282.5 348.2 283.5 348.1 284.4 348C285.4 347.9 286.3 347.8 287.3 347.7C287.4 347.7 287.5 347.7 287.7 347.6C288 347.6 288.2 347.5 288.5 347.5C290 347.3 291.6 347.1 293.1 346.9C293.3 346.9 293.5 346.8 293.7 346.8C294.1 346.7 294.6 346.6 295 346.6C296.3 346.4 297.6 346.2 298.9 345.9C299.4 345.8 299.8 345.7 300.3 345.6C300.5 345.6 300.8 345.5 301 345.5C301.9 345.3 302.8 345.1 303.6 345C304 344.9 304.4 344.9 304.7 344.8C305.4 344.7 306 344.5 306.6 344.4C307.5 344.2 308.4 344 309.2 343.8C309.8 343.7 310.4 343.5 311 343.4C311.1 343.4 311.3 343.3 311.4 343.3C311.6 343.2 311.9 343.2 312.1 343.1C312.8 342.9 313.4 342.7 314 342.6C315.2 342.3 316.4 342 317.5 341.6C318 341.4 318.5 341.3 318.9 341.2C320.2 340.8 321.5 340.4 322.8 339.9C323 339.8 323.3 339.7 323.5 339.6C323.9 339.5 324.2 339.3 324.6 339.2C325.2 339 325.9 338.7 326.5 338.5C327 338.3 327.5 338.1 328.1 337.9C328.5 337.7 328.9 337.6 329.4 337.4C329.6 337.3 329.8 337.2 330 337.2C330.4 337.1 330.7 336.9 331.1 336.7C331.9 336.4 332.7 336.1 333.5 335.7C333.8 335.6 334.1 335.4 334.5 335.3L336 306.1Z" fill="#90959E"/>
<path d="M336 266.3C292.1 285.8 230.8 285.8 186.9 266.4L188.4 296C188.5 296.1 188.7 296.1 188.8 296.2C190.8 297.1 192.9 297.9 195 298.6C195.1 298.6 195.1 298.7 195.2 298.7C195.6 298.8 196 299 196.4 299.1C197.6 299.5 198.9 300 200.2 300.4C200.8 300.6 201.5 300.8 202.1 301C203.2 301.3 204.4 301.7 205.6 302C206.3 302.2 206.9 302.4 207.6 302.6C208.8 302.9 210 303.2 211.2 303.5C211.8 303.7 212.5 303.8 213.1 304C214.5 304.3 216 304.7 217.4 305C217.8 305.1 218.2 305.2 218.6 305.3C220.5 305.7 222.4 306 224.2 306.4C224.7 306.5 225.2 306.6 225.7 306.6C227.1 306.8 228.5 307.1 229.9 307.3C230.6 307.4 231.3 307.5 232 307.6C233.3 307.8 234.5 307.9 235.8 308.1C236.5 308.2 237.2 308.3 238 308.3C239.3 308.4 240.5 308.6 241.8 308.7C242.5 308.8 243.2 308.8 243.9 308.9C245.4 309 246.8 309.1 248.3 309.2C248.8 309.2 249.3 309.3 249.8 309.3C251.7 309.4 253.7 309.5 255.7 309.5C256.1 309.5 256.5 309.5 256.8 309.5C257.4 309.5 258 309.5 258.5 309.5C259.4 309.5 260.4 309.5 261.3 309.5C261.6 309.5 261.9 309.5 262.1 309.5C262.5 309.5 262.9 309.5 263.4 309.5C263.7 309.5 263.9 309.5 264.2 309.5C265 309.5 265.7 309.5 266.5 309.4C266.8 309.4 267 309.4 267.3 309.4C267.5 309.4 267.6 309.4 267.8 309.4C268.4 309.4 268.9 309.4 269.5 309.3C270.3 309.3 271 309.2 271.8 309.2C272.1 309.2 272.3 309.2 272.6 309.2C272.9 309.2 273.1 309.2 273.4 309.2C273.9 309.2 274.5 309.1 275.1 309.1C275.2 309.1 275.4 309.1 275.5 309.1C275.9 309.1 276.2 309.1 276.6 309C277 309 277.3 308.9 277.7 308.9C278 308.9 278.4 308.8 278.8 308.8C279.1 308.8 279.5 308.7 279.9 308.7C280.2 308.7 280.4 308.7 280.7 308.6C281 308.6 281.2 308.6 281.5 308.5C282.5 308.4 283.5 308.3 284.4 308.2C285.4 308.1 286.3 308 287.3 307.9C287.4 307.9 287.5 307.9 287.7 307.8C288 307.8 288.2 307.7 288.5 307.7C290 307.5 291.6 307.3 293.1 307.1C293.3 307.1 293.5 307 293.7 307C294.1 306.9 294.6 306.8 295 306.8C296.3 306.6 297.6 306.4 298.9 306.1C299.4 306 299.8 305.9 300.3 305.8C300.5 305.8 300.8 305.7 301 305.7C301.9 305.5 302.8 305.3 303.6 305.2C304 305.1 304.4 305.1 304.7 305C305.4 304.9 306 304.7 306.6 304.6C307.5 304.4 308.4 304.2 309.2 304C309.8 303.9 310.4 303.7 311 303.6C311.1 303.6 311.3 303.5 311.4 303.5C311.6 303.4 311.9 303.4 312.1 303.3C312.8 303.1 313.4 302.9 314 302.8C315.2 302.5 316.4 302.2 317.5 301.8C318 301.6 318.5 301.5 318.9 301.4C320.2 301 321.5 300.6 322.8 300.1C323 300 323.3 299.9 323.5 299.8C323.9 299.7 324.2 299.5 324.6 299.4C325.2 299.2 325.9 298.9 326.5 298.7C327 298.5 327.5 298.3 328.1 298.1C328.5 297.9 328.9 297.8 329.4 297.6C329.6 297.5 329.8 297.4 330 297.4C330.4 297.3 330.7 297.1 331.1 296.9C331.9 296.6 332.7 296.3 333.5 295.9C333.8 295.8 334.1 295.6 334.5 295.5L336 266.3Z" fill="#90959E"/>
</g>
<defs>
<clipPath id="clip0">
<rect width="500" height="500" fill="white"/>
</clipPath>
</defs>
</svg>
